<svg width="28" height="32" viewBox="0 0 28 32" fill="none" xmlns="http://www.w3.org/2000/svg">
<path d="M26.6667 5.33333H25.3333V1.33333C25.3333 0.597333 24.736 0 24 0H4C1.79467 0 0.00133333 1.79333 0 3.99867V28C0 30.2053 1.79467 32 4 32H26.6667C27.4027 32 28 31.4027 28 30.6667V6.66667C28 5.93067 27.4027 5.33333 26.6667 5.33333ZM18.6667 19C18.6667 19.9147 17.54 20.3427 16.9293 19.676L14 16.48L11.0707 19.676C10.46 20.3453 9.33333 19.9133 9.33333 19V9.33333C9.33333 8.59733 9.93067 8 10.6667 8H17.3333C18.0693 8 18.6667 8.59733 18.6667 9.33333V19ZM22.6667 5.33333H4C3.26533 5.33333 2.66667 4.73467 2.66667 4C2.66667 3.26533 3.26533 2.66667 4 2.66667H22.6667V5.33333Z" fill="#FF0031"/>
</svg>
