<svg width="921" height="921" viewBox="0 0 921 921" fill="none" xmlns="http://www.w3.org/2000/svg">
<path d="M460.5 0C714.827 0 921 206.173 921 460.5C921 714.827 714.827 921 460.5 921C206.173 921 0 714.827 0 460.5C0 206.173 206.173 0 460.5 0ZM460.5 1C206.725 1 1 206.725 1 460.5C1 714.275 206.725 920 460.5 920C714.275 920 920 714.275 920 460.5C920 206.725 714.275 1 460.5 1ZM460.5 99C660.151 99 822 260.625 822 460C822 659.375 660.151 821 460.5 821C260.849 821 99 659.375 99 460C99 260.625 260.849 99 460.5 99ZM460.5 100C261.4 100 100 261.179 100 460C100 658.821 261.4 820 460.5 820C659.6 820 821 658.821 821 460C821 261.179 659.6 100 460.5 100ZM461.5 175C619.177 175 747 302.599 747 460C747 617.401 619.177 745 461.5 745C303.823 745 176 617.401 176 460C176 302.599 303.823 175 461.5 175ZM461.5 176C304.373 176 177 303.153 177 460C177 616.847 304.373 744 461.5 744C618.627 744 746 616.847 746 460C746 303.153 618.627 176 461.5 176Z" fill="#4E4E4E"/>
</svg>
