<svg width="124" height="31" viewBox="0 0 124 31" fill="none" xmlns="http://www.w3.org/2000/svg">
<rect width="124" height="31" rx="15.5" fill="white"/>
<path d="M22.7676 19.1643C22.5186 19.6526 22.2027 20.0212 21.8197 20.2702C21.4366 20.5096 21.0632 20.6293 20.6994 20.6293C20.3163 20.6293 20.0147 20.5239 19.7945 20.3133C19.5838 20.1026 19.4785 19.8489 19.4785 19.5521C19.4785 19.2552 19.5407 18.944 19.6652 18.6185C19.7897 18.2929 19.9238 17.9626 20.0674 17.6274C20.211 17.2923 20.3451 16.9572 20.4695 16.622C20.594 16.2869 20.6563 15.9613 20.6563 15.6454C20.6563 15.4634 20.6132 15.315 20.527 15.2001C20.4408 15.0852 20.3116 15.0278 20.1392 15.0278C19.9764 15.0278 19.8184 15.0708 19.6652 15.157C19.512 15.2336 19.3492 15.3629 19.1769 15.5448C19.0141 15.7172 18.8322 15.9518 18.6311 16.2486C18.4396 16.5359 18.2242 16.8901 17.9848 17.3114L16.9937 20.5H15.4282L18.6598 10.2306C18.6598 10.2018 18.6311 10.1875 18.5736 10.1875L17.7837 10.2018C17.7645 10.2018 17.7645 10.1635 17.7837 10.0869C17.8124 10.0103 17.8364 9.97203 17.8555 9.97203L20.2828 9.91458C20.302 9.91458 20.3116 9.92416 20.3116 9.94331L18.2577 16.4353C18.7269 15.6214 19.196 15.0565 19.6652 14.7405C20.1344 14.4149 20.5653 14.2522 20.9579 14.2522C21.3313 14.2522 21.6234 14.3671 21.834 14.5969C22.0447 14.8171 22.15 15.1379 22.15 15.5592C22.15 15.9135 22.083 16.2821 21.9489 16.6651C21.8149 17.0481 21.6664 17.4216 21.5037 17.7854C21.3505 18.1397 21.2068 18.4701 21.0728 18.7765C20.9387 19.0829 20.8717 19.3414 20.8717 19.5521C20.8717 19.7148 20.9052 19.8489 20.9722 19.9542C21.0393 20.0595 21.1542 20.1122 21.317 20.1122C21.5372 20.1122 21.7431 20.0308 21.9346 19.868C22.1356 19.7053 22.3463 19.4419 22.5665 19.0781L22.7676 19.1643ZM28.5621 16.6795C28.5621 17.187 28.4616 17.6801 28.2605 18.1589C28.0594 18.628 27.7865 19.0494 27.4418 19.4228C27.1067 19.7866 26.7189 20.0787 26.2784 20.2989C25.838 20.5192 25.3783 20.6293 24.8996 20.6293C24.574 20.6293 24.2724 20.5718 23.9947 20.4569C23.7266 20.342 23.492 20.1792 23.2909 19.9686C23.0899 19.7579 22.9319 19.5042 22.817 19.2073C22.7116 18.9105 22.659 18.585 22.659 18.2307C22.659 17.7136 22.7595 17.2157 22.9606 16.7369C23.1617 16.2582 23.4298 15.8369 23.7649 15.473C24.1001 15.0996 24.4879 14.8027 24.9283 14.5825C25.3688 14.3623 25.8284 14.2522 26.3071 14.2522C26.6327 14.2522 26.9295 14.3144 27.1976 14.4389C27.4753 14.5538 27.7147 14.7213 27.9158 14.9416C28.1169 15.1522 28.2749 15.406 28.3898 15.7028C28.5047 15.9996 28.5621 16.3252 28.5621 16.6795ZM27.1689 15.6166C27.1689 15.2623 27.1067 14.9895 26.9822 14.7979C26.8673 14.5969 26.6471 14.4963 26.3215 14.4963C26.0438 14.4963 25.8044 14.5681 25.6034 14.7118C25.4023 14.8554 25.2108 15.0804 25.0289 15.3868C24.9522 15.5209 24.8565 15.765 24.7416 16.1193C24.6267 16.4736 24.5166 16.8566 24.4112 17.2684C24.3155 17.6705 24.2293 18.0631 24.1527 18.4461C24.0857 18.8195 24.0522 19.102 24.0522 19.2935C24.0522 19.6478 24.1096 19.9255 24.2245 20.1266C24.3394 20.3181 24.5645 20.4138 24.8996 20.4138C25.1581 20.4138 25.3879 20.342 25.589 20.1984C25.7997 20.0548 25.996 19.8297 26.1779 19.5233C26.2545 19.3797 26.3502 19.1307 26.4651 18.7765C26.58 18.4222 26.6902 18.044 26.7955 17.6418C26.9008 17.2301 26.987 16.8375 27.054 16.464C27.1306 16.0906 27.1689 15.8081 27.1689 15.6166ZM38.522 15.3868C38.522 16.0379 38.3831 16.6795 38.1054 17.3114C37.8373 17.9338 37.4974 18.494 37.0857 18.9919C36.6739 19.4898 36.2287 19.892 35.7499 20.1984C35.2712 20.4952 34.8259 20.6436 34.4142 20.6436C34.1269 20.6436 33.8636 20.6005 33.6242 20.5144C33.3848 20.4282 33.1838 20.3037 33.021 20.1409C32.8582 19.9781 32.7433 19.7819 32.6763 19.5521C32.6093 19.3222 32.6093 19.0685 32.6763 18.7908C32.5518 19.0494 32.389 19.2935 32.1879 19.5233C31.9964 19.7436 31.7906 19.9398 31.5703 20.1122C31.3501 20.275 31.1251 20.4042 30.8953 20.5C30.6655 20.5958 30.4596 20.6436 30.2777 20.6436C29.8755 20.6436 29.5595 20.5383 29.3297 20.3276C29.1095 20.1074 28.9994 19.7866 28.9994 19.3653C28.9994 18.9823 29.0664 18.5897 29.2005 18.1876C29.3345 17.7854 29.4829 17.3976 29.6457 17.0242C29.8181 16.6412 29.9713 16.2917 30.1053 15.9757C30.2394 15.6597 30.3064 15.3964 30.3064 15.1857C30.3064 15.023 30.2777 14.9129 30.2202 14.8554C30.1724 14.7884 30.0862 14.7549 29.9617 14.7549C29.8372 14.7549 29.6936 14.8267 29.5308 14.9703C29.3776 15.1139 29.234 15.3342 29.0999 15.631L28.8701 15.5448C29.0712 15.1044 29.325 14.7836 29.6314 14.5825C29.9378 14.3719 30.2537 14.2665 30.5793 14.2665C30.9527 14.2665 31.2256 14.3671 31.398 14.5681C31.5799 14.7692 31.6709 15.0278 31.6709 15.3437C31.6709 15.631 31.6086 15.9422 31.4842 16.2773C31.3693 16.6029 31.2352 16.938 31.082 17.2827C30.9384 17.6179 30.8043 17.9578 30.6798 18.3025C30.5649 18.6472 30.5075 18.9823 30.5075 19.3079C30.5075 19.7388 30.699 19.9542 31.082 19.9542C31.3501 19.9542 31.6374 19.7914 31.9438 19.4659C32.2598 19.1307 32.5853 18.6041 32.9205 17.886L33.9833 14.3958L35.5632 14.324L34.1413 19.0063C33.8828 19.8106 34.0791 20.2127 34.7302 20.2127C35.0079 20.2127 35.2903 20.1361 35.5776 19.9829C35.8744 19.8297 36.1377 19.6239 36.3675 19.3653C36.6069 19.0972 36.8032 18.786 36.9564 18.4317C37.1096 18.0679 37.1862 17.6801 37.1862 17.2684C37.1862 17.0003 37.1766 16.7752 37.1575 16.5933C37.1383 16.4114 37.1144 16.2486 37.0857 16.105C37.0665 15.9613 37.0474 15.8225 37.0282 15.6884C37.0091 15.5448 36.9995 15.3773 36.9995 15.1857C36.9995 14.9368 37.0522 14.7213 37.1575 14.5394C37.2628 14.3575 37.4256 14.2665 37.6458 14.2665C37.9522 14.2665 38.1725 14.3814 38.3065 14.6112C38.4501 14.8315 38.522 15.09 38.522 15.3868ZM44.9968 14.2952C45.0064 14.2952 45.0016 14.3383 44.9824 14.4245C44.9633 14.5011 44.9441 14.5394 44.925 14.5394H43.8478L42.2391 19.6526C42.2008 19.7866 42.2056 19.8968 42.2535 19.9829C42.3014 20.0691 42.3923 20.1122 42.5264 20.1122C42.7466 20.1122 42.9573 20.0356 43.1584 19.8824C43.3594 19.7292 43.5653 19.4611 43.776 19.0781L43.9914 19.1643C43.7424 19.6717 43.4312 20.0452 43.0578 20.2846C42.694 20.5144 42.3301 20.6293 41.9662 20.6293C41.5066 20.6293 41.1763 20.4617 40.9752 20.1266C40.7837 19.7819 40.7789 19.3127 40.9608 18.719L42.2966 14.5394H41.2481C41.2289 14.5394 41.2289 14.5011 41.2481 14.4245C41.2768 14.3383 41.3008 14.2952 41.3199 14.2952H42.3684L43.0004 12.227L44.5946 12.1695L43.9196 14.2952H44.9968ZM50.1232 16.6795C50.1232 17.187 50.0227 17.6801 49.8216 18.1589C49.6205 18.628 49.3476 19.0494 49.0029 19.4228C48.6678 19.7866 48.28 20.0787 47.8395 20.2989C47.3991 20.5192 46.9395 20.6293 46.4607 20.6293C46.1351 20.6293 45.8335 20.5718 45.5558 20.4569C45.2877 20.342 45.0531 20.1792 44.852 19.9686C44.651 19.7579 44.493 19.5042 44.3781 19.2073C44.2727 18.9105 44.2201 18.585 44.2201 18.2307C44.2201 17.7136 44.3206 17.2157 44.5217 16.7369C44.7228 16.2582 44.9909 15.8369 45.326 15.473C45.6612 15.0996 46.049 14.8027 46.4894 14.5825C46.9299 14.3623 47.3895 14.2522 47.8682 14.2522C48.1938 14.2522 48.4906 14.3144 48.7587 14.4389C49.0364 14.5538 49.2758 14.7213 49.4769 14.9416C49.678 15.1522 49.836 15.406 49.9509 15.7028C50.0658 15.9996 50.1232 16.3252 50.1232 16.6795ZM48.73 15.6166C48.73 15.2623 48.6678 14.9895 48.5433 14.7979C48.4284 14.5969 48.2082 14.4963 47.8826 14.4963C47.6049 14.4963 47.3655 14.5681 47.1645 14.7118C46.9634 14.8554 46.7719 15.0804 46.59 15.3868C46.5134 15.5209 46.4176 15.765 46.3027 16.1193C46.1878 16.4736 46.0777 16.8566 45.9724 17.2684C45.8766 17.6705 45.7904 18.0631 45.7138 18.4461C45.6468 18.8195 45.6133 19.102 45.6133 19.2935C45.6133 19.6478 45.6707 19.9255 45.7856 20.1266C45.9005 20.3181 46.1256 20.4138 46.4607 20.4138C46.7192 20.4138 46.949 20.342 47.1501 20.1984C47.3608 20.0548 47.5571 19.8297 47.739 19.5233C47.8156 19.3797 47.9113 19.1307 48.0262 18.7765C48.1411 18.4222 48.2513 18.044 48.3566 17.6418C48.4619 17.2301 48.5481 16.8375 48.6151 16.464C48.6917 16.0906 48.73 15.8081 48.73 15.6166ZM57.0707 20.653C56.2682 20.653 55.5779 20.483 54.9999 20.143C54.4252 19.7995 53.9832 19.3235 53.6738 18.7148C53.3677 18.1062 53.2147 17.4057 53.2147 16.6135C53.2147 15.811 53.3694 15.1071 53.6789 14.5019C53.9917 13.8932 54.4354 13.4189 55.0101 13.0789C55.5847 12.7354 56.2682 12.5637 57.0604 12.5637C57.7439 12.5637 58.3424 12.6878 58.8558 12.936C59.3693 13.1843 59.7756 13.5328 60.0748 13.9816C60.374 14.4305 60.539 14.9575 60.5696 15.5628H58.5192C58.4614 15.1717 58.3084 14.8572 58.0601 14.6192C57.8153 14.3778 57.494 14.2571 57.0962 14.2571C56.7595 14.2571 56.4654 14.3489 56.2138 14.5325C55.9656 14.7127 55.7717 14.9762 55.6323 15.3231C55.4929 15.6699 55.4232 16.0898 55.4232 16.5829C55.4232 17.0827 55.4912 17.5077 55.6272 17.858C55.7666 18.2082 55.9622 18.4751 56.2138 18.6587C56.4654 18.8424 56.7595 18.9342 57.0962 18.9342C57.3444 18.9342 57.5671 18.8832 57.7643 18.7812C57.9649 18.6791 58.1298 18.5312 58.2591 18.3374C58.3917 18.1402 58.4784 17.9039 58.5192 17.6285H60.5696C60.5356 18.2269 60.3723 18.7539 60.0799 19.2096C59.7909 19.6618 59.3914 20.0155 58.8813 20.2705C58.3713 20.5255 57.7677 20.653 57.0707 20.653ZM63.4153 15.9708V20.5H61.2426V10.0543H63.3541V14.0479H63.4459C63.6228 13.5855 63.9084 13.2234 64.3028 12.9615C64.6973 12.6963 65.192 12.5637 65.7871 12.5637C66.3311 12.5637 66.8054 12.6827 67.2101 12.9207C67.6181 13.1554 67.9343 13.4937 68.1588 13.9357C68.3866 14.3744 68.4988 14.8997 68.4954 15.5118V20.5H66.3226V15.8994C66.326 15.4166 66.2036 15.0408 65.9554 14.7722C65.7105 14.5036 65.3671 14.3693 64.9251 14.3693C64.6293 14.3693 64.3674 14.4322 64.1396 14.558C63.9152 14.6838 63.7384 14.8674 63.6092 15.1088C63.4834 15.3469 63.4187 15.6342 63.4153 15.9708ZM73.0269 20.653C72.2346 20.653 71.5494 20.4847 70.9714 20.1481C70.3967 19.808 69.953 19.3354 69.6402 18.7301C69.3274 18.1215 69.1709 17.4159 69.1709 16.6135C69.1709 15.8042 69.3274 15.0969 69.6402 14.4917C69.953 13.883 70.3967 13.4104 70.9714 13.0738C71.5494 12.7337 72.2346 12.5637 73.0269 12.5637C73.8191 12.5637 74.5026 12.7337 75.0773 13.0738C75.6553 13.4104 76.1007 13.883 76.4136 14.4917C76.7264 15.0969 76.8828 15.8042 76.8828 16.6135C76.8828 17.4159 76.7264 18.1215 76.4136 18.7301C76.1007 19.3354 75.6553 19.808 75.0773 20.1481C74.5026 20.4847 73.8191 20.653 73.0269 20.653ZM73.0371 18.9699C73.3975 18.9699 73.6984 18.8679 73.9399 18.6638C74.1813 18.4564 74.3632 18.1742 74.4856 17.8172C74.6114 17.4601 74.6743 17.0538 74.6743 16.5982C74.6743 16.1425 74.6114 15.7362 74.4856 15.3792C74.3632 15.0221 74.1813 14.7399 73.9399 14.5325C73.6984 14.3251 73.3975 14.2214 73.0371 14.2214C72.6732 14.2214 72.3672 14.3251 72.119 14.5325C71.8742 14.7399 71.6889 15.0221 71.5631 15.3792C71.4406 15.7362 71.3794 16.1425 71.3794 16.5982C71.3794 17.0538 71.4406 17.4601 71.5631 17.8172C71.6889 18.1742 71.8742 18.4564 72.119 18.6638C72.3672 18.8679 72.6732 18.9699 73.0371 18.9699ZM81.1172 20.653C80.3249 20.653 79.6398 20.4847 79.0617 20.1481C78.4871 19.808 78.0433 19.3354 77.7305 18.7301C77.4177 18.1215 77.2613 17.4159 77.2613 16.6135C77.2613 15.8042 77.4177 15.0969 77.7305 14.4917C78.0433 13.883 78.4871 13.4104 79.0617 13.0738C79.6398 12.7337 80.3249 12.5637 81.1172 12.5637C81.9095 12.5637 82.5929 12.7337 83.1676 13.0738C83.7456 13.4104 84.1911 13.883 84.5039 14.4917C84.8167 15.0969 84.9731 15.8042 84.9731 16.6135C84.9731 17.4159 84.8167 18.1215 84.5039 18.7301C84.1911 19.3354 83.7456 19.808 83.1676 20.1481C82.5929 20.4847 81.9095 20.653 81.1172 20.653ZM81.1274 18.9699C81.4878 18.9699 81.7888 18.8679 82.0302 18.6638C82.2716 18.4564 82.4535 18.1742 82.5759 17.8172C82.7017 17.4601 82.7646 17.0538 82.7646 16.5982C82.7646 16.1425 82.7017 15.7362 82.5759 15.3792C82.4535 15.0221 82.2716 14.7399 82.0302 14.5325C81.7888 14.3251 81.4878 14.2214 81.1274 14.2214C80.7636 14.2214 80.4575 14.3251 80.2093 14.5325C79.9645 14.7399 79.7792 15.0221 79.6534 15.3792C79.531 15.7362 79.4698 16.1425 79.4698 16.5982C79.4698 17.0538 79.531 17.4601 79.6534 17.8172C79.7792 18.1742 79.9645 18.4564 80.2093 18.6638C80.4575 18.8679 80.7636 18.9699 81.1274 18.9699ZM92.1862 14.8997L90.197 15.0221C90.163 14.8521 90.0899 14.6991 89.9777 14.5631C89.8655 14.4237 89.7176 14.3132 89.5339 14.2316C89.3537 14.1465 89.1378 14.104 88.8862 14.104C88.5496 14.104 88.2656 14.1755 88.0344 14.3183C87.8032 14.4577 87.6876 14.6447 87.6876 14.8793C87.6876 15.0663 87.7624 15.2244 87.912 15.3537C88.0616 15.4829 88.3183 15.5866 88.6822 15.6648L90.1001 15.9504C90.8618 16.1068 91.4296 16.3584 91.8036 16.7053C92.1777 17.0521 92.3647 17.5077 92.3647 18.0722C92.3647 18.5856 92.2134 19.0362 91.9108 19.4238C91.6115 19.8114 91.2001 20.1141 90.6764 20.3317C90.1562 20.5459 89.556 20.653 88.876 20.653C87.8389 20.653 87.0126 20.4371 86.3972 20.0053C85.7851 19.57 85.4264 18.9784 85.321 18.2303L87.4581 18.1181C87.5227 18.4343 87.6791 18.6757 87.9273 18.8424C88.1755 19.0056 88.4935 19.0872 88.8811 19.0872C89.2619 19.0872 89.5679 19.0141 89.7992 18.8679C90.0338 18.7182 90.1528 18.5261 90.1562 18.2915C90.1528 18.0943 90.0695 17.9328 89.9063 17.807C89.7431 17.6778 89.4914 17.5791 89.1514 17.5111L87.7947 17.2408C87.0296 17.0878 86.4601 16.8226 86.086 16.4451C85.7154 16.0677 85.5301 15.5866 85.5301 15.0017C85.5301 14.4985 85.6661 14.0649 85.9381 13.7011C86.2136 13.3373 86.5995 13.0568 87.0959 12.8595C87.5958 12.6623 88.1806 12.5637 88.8505 12.5637C89.84 12.5637 90.6186 12.7728 91.1865 13.1911C91.7577 13.6093 92.091 14.1789 92.1862 14.8997ZM96.5851 20.653C95.7792 20.653 95.0855 20.4898 94.5041 20.1634C93.926 19.8335 93.4806 19.3677 93.1678 18.7658C92.8549 18.1606 92.6985 17.4448 92.6985 16.6186C92.6985 15.8127 92.8549 15.1054 93.1678 14.4968C93.4806 13.8881 93.9209 13.4138 94.4888 13.0738C95.06 12.7337 95.7299 12.5637 96.4984 12.5637C97.0152 12.5637 97.4963 12.647 97.9418 12.8136C98.3906 12.9768 98.7817 13.2234 99.1149 13.5532C99.4515 13.883 99.7133 14.2979 99.9003 14.7977C100.087 15.2941 100.181 15.8756 100.181 16.5421V17.1388H93.5656V15.7923H98.1356C98.1356 15.4795 98.0676 15.2023 97.9316 14.9609C97.7956 14.7195 97.6068 14.5308 97.3654 14.3948C97.1274 14.2554 96.8503 14.1857 96.5341 14.1857C96.2042 14.1857 95.9118 14.2622 95.6568 14.4152C95.4052 14.5648 95.2079 14.7671 95.0651 15.0221C94.9223 15.2737 94.8492 15.5543 94.8458 15.8637V17.1439C94.8458 17.5315 94.9172 17.8665 95.06 18.1487C95.2062 18.4309 95.412 18.6485 95.6772 18.8016C95.9424 18.9546 96.2569 19.0311 96.6208 19.0311C96.8622 19.0311 97.0832 18.9971 97.2838 18.9291C97.4844 18.8611 97.6562 18.759 97.799 18.623C97.9418 18.487 98.0506 18.3204 98.1254 18.1232L100.135 18.2558C100.033 18.7386 99.8238 19.1603 99.5076 19.5207C99.1948 19.8777 98.7902 20.1566 98.2937 20.3572C97.8007 20.5544 97.2311 20.653 96.5851 20.653ZM102.747 17.3683V17.1949C102.751 16.5999 102.804 16.1255 102.906 15.7719C103.011 15.4183 103.164 15.1326 103.365 14.915C103.565 14.6974 103.807 14.5002 104.089 14.3234C104.3 14.1874 104.488 14.0462 104.655 13.9C104.822 13.7538 104.954 13.5923 105.053 13.4155C105.151 13.2353 105.201 13.0347 105.201 12.8136C105.201 12.579 105.145 12.3733 105.032 12.1965C104.92 12.0197 104.769 11.8837 104.578 11.7884C104.391 11.6932 104.184 11.6456 103.956 11.6456C103.735 11.6456 103.526 11.6949 103.329 11.7935C103.132 11.8888 102.97 12.0316 102.844 12.222C102.719 12.409 102.651 12.6419 102.64 12.9207H100.559C100.576 12.2407 100.74 11.6796 101.049 11.2376C101.358 10.7922 101.768 10.4606 102.278 10.243C102.788 10.022 103.351 9.91148 103.966 9.91148C104.643 9.91148 105.242 10.0237 105.762 10.2481C106.282 10.4691 106.69 10.7905 106.986 11.2121C107.282 11.6337 107.43 12.1421 107.43 12.7371C107.43 13.135 107.363 13.4886 107.231 13.798C107.101 14.104 106.92 14.3761 106.685 14.6141C106.45 14.8487 106.173 15.0612 105.854 15.2516C105.585 15.4115 105.364 15.5781 105.191 15.7515C105.021 15.9249 104.893 16.1255 104.808 16.3533C104.726 16.5812 104.684 16.8617 104.68 17.1949V17.3683H102.747ZM103.757 20.6326C103.417 20.6326 103.127 20.5136 102.885 20.2756C102.647 20.0342 102.53 19.7451 102.533 19.4085C102.53 19.0753 102.647 18.7897 102.885 18.5516C103.127 18.3136 103.417 18.1946 103.757 18.1946C104.08 18.1946 104.364 18.3136 104.609 18.5516C104.854 18.7897 104.978 19.0753 104.981 19.4085C104.978 19.6329 104.918 19.8386 104.803 20.0257C104.691 20.2093 104.543 20.3572 104.359 20.4694C104.176 20.5782 103.975 20.6326 103.757 20.6326Z" fill="#FF0031"/>
</svg>
