<svg width="101" height="27" viewBox="0 0 101 27" fill="none" xmlns="http://www.w3.org/2000/svg">
<path d="M38.2588 26.2266H33.9629V24.1494C33.3745 24.8517 32.6358 25.4172 31.7451 25.8447C30.5903 26.3759 29.3314 26.6416 27.9688 26.6416C26.1443 26.6415 24.5159 26.2149 23.084 25.3604C21.6522 24.4828 20.5209 23.2931 19.6895 21.792C18.9362 20.4319 18.524 18.9389 18.4531 17.3135C18.4253 17.6057 18.3736 17.8632 18.293 18.085H4.71387C4.7722 18.7332 4.92123 19.3341 5.16211 19.8867C5.57784 20.7642 6.17868 21.4457 6.96387 21.9307C7.77219 22.4156 8.69611 22.6582 9.73535 22.6582C10.7745 22.6582 11.6522 22.4387 12.3682 22C13.1073 21.5612 13.6848 20.9715 14.1006 20.2324L17.7734 22.0342C17.4039 22.9349 16.8262 23.7319 16.041 24.4248C15.2557 25.1177 14.3199 25.6601 13.2344 26.0527C12.1721 26.4453 10.9944 26.6416 9.70117 26.6416C7.76114 26.6416 6.06344 26.2028 4.6084 25.3252C3.15331 24.4475 2.02127 23.2581 1.21289 21.7568C0.40461 20.2557 4.92145e-05 18.593 0 16.7686C0 14.8747 0.404606 13.2001 1.21289 11.7451C2.04437 10.2669 3.16435 9.09969 4.57324 8.24512C6.00519 7.3906 7.59921 6.96387 9.35449 6.96387C10.8326 6.96389 12.1258 7.20642 13.2344 7.69141C14.3661 8.17641 15.3251 8.84568 16.1104 9.7002C16.8956 10.5547 17.4954 11.5369 17.9111 12.6455C18.2533 13.5389 18.4521 14.4951 18.5127 15.5137C18.6636 14.1733 19.0561 12.9404 19.6895 11.8145C20.5209 10.3363 21.6521 9.15793 23.084 8.28027C24.5391 7.4026 26.1561 6.96387 27.9346 6.96387C29.3665 6.96387 30.6365 7.25273 31.7451 7.83008C32.5159 8.20758 33.1739 8.69244 33.7197 9.28418V0H38.2588V26.2266ZM80.4658 7.37988H84.7959V11.4326H80.4658V19.5049C80.4658 20.1284 80.5695 20.6598 80.7773 21.0986C81.0083 21.5374 81.3545 21.8726 81.8164 22.1035C82.3014 22.3344 82.9134 22.4502 83.6523 22.4502C83.814 22.4502 83.9992 22.4381 84.207 22.415C84.438 22.3919 84.6574 22.3688 84.8652 22.3457V26.2266C84.5419 26.2727 84.1725 26.319 83.7568 26.3652C83.3411 26.4114 82.9597 26.4346 82.6133 26.4346C80.4885 26.4346 78.8371 25.8569 77.6592 24.7021C76.5044 23.5243 75.9268 21.8728 75.9268 19.748V11.4326H72.6699V9.7207L67.7295 16.7686L74.2773 26.2266H68.9766L65.0439 20.3672L61.1123 26.2266H51.8701V15.1748C51.8701 14.3433 51.7081 13.6269 51.3848 13.0264C51.0614 12.4259 50.6106 11.9639 50.0332 11.6406C49.479 11.2943 48.8206 11.1211 48.0586 11.1211C47.3196 11.1211 46.6613 11.2942 46.084 11.6406C45.5067 11.9639 45.0567 12.426 44.7334 13.0264C44.41 13.6269 44.248 14.3433 44.248 15.1748V26.2266H39.709V7.37988H43.9707V9.69434C44.4069 8.9199 45.0069 8.30934 45.7725 7.86426C46.7886 7.2639 47.9663 6.96393 49.3057 6.96387C50.6914 6.96387 51.9161 7.26376 52.9785 7.86426C54.0641 8.46477 54.9073 9.30802 55.5078 10.3936C56.1083 11.456 56.4082 12.6918 56.4082 14.1006V25.3184L62.3594 16.7686L55.7422 7.37988H61.0771L65.0439 13.2354L69.0107 7.37988H73.0166C73.9405 7.37988 74.6569 7.13736 75.165 6.65234C75.6731 6.1674 75.9267 5.46269 75.9268 4.53906V3.08398H80.4658V7.37988ZM95.0898 17.9277C95.7529 17.9278 96.3371 18.0514 96.8418 18.2988C97.3465 18.5364 97.7375 18.8731 98.0146 19.3086C98.3015 19.7341 98.4452 20.2338 98.4453 20.8076V26.1826H96.6035V25.3311C96.5004 25.4449 96.3934 25.5524 96.2773 25.6484C95.9903 25.8761 95.6631 26.0539 95.2969 26.1826C94.9308 26.3013 94.5253 26.3613 94.0801 26.3613C93.5159 26.3613 93.0251 26.2672 92.6094 26.0791C92.1938 25.891 91.8721 25.6237 91.6445 25.2773C91.4169 24.921 91.3027 24.5101 91.3027 24.0449C91.3027 23.5995 91.4026 23.2038 91.6006 22.8574C91.7986 22.5011 92.1048 22.2034 92.5205 21.9658C92.9362 21.7283 93.4612 21.5599 94.0947 21.4609L96.5 21.0693V20.8076C96.4999 20.4614 96.361 20.1748 96.084 19.9473C95.8168 19.7098 95.4608 19.5909 95.0156 19.5908C94.5999 19.5908 94.228 19.704 93.9014 19.9316C93.5848 20.1493 93.3526 20.4416 93.2041 20.8076L91.6152 20.0361C91.7736 19.6105 92.0209 19.2443 92.3574 18.9375C92.7039 18.6207 93.11 18.3735 93.5752 18.1953C94.0404 18.0172 94.5455 17.9277 95.0898 17.9277ZM90.0869 26.1826H88.127V24.1045H90.0869V26.1826ZM101 26.1826H99.0547V18.1055H101V26.1826ZM94.4658 22.9014C94.0798 22.9706 93.7926 23.0943 93.6045 23.2725C93.4164 23.4506 93.3223 23.6836 93.3223 23.9707C93.3223 24.2478 93.4269 24.4704 93.6348 24.6387C93.8525 24.7969 94.1199 24.876 94.4365 24.876C94.8421 24.8759 95.1982 24.7922 95.5049 24.624C95.8216 24.4459 96.0641 24.2033 96.2324 23.8965C96.4106 23.5896 96.5 23.253 96.5 22.8867V22.5557L94.4658 22.9014ZM28.4541 11.1211C27.4379 11.1211 26.5252 11.3757 25.7168 11.8838C24.9087 12.3688 24.2734 13.0382 23.8115 13.8926C23.3727 14.724 23.1533 15.6942 23.1533 16.8027C23.1533 17.9114 23.3727 18.8935 23.8115 19.748C24.2734 20.6024 24.9087 21.2719 25.7168 21.7568C26.5252 22.2418 27.4379 22.4844 28.4541 22.4844C29.4934 22.4844 30.4061 22.2419 31.1914 21.7568C31.9765 21.2719 32.5886 20.6024 33.0273 19.748C33.4893 18.8935 33.7197 17.9114 33.7197 16.8027C33.7197 15.7173 33.4893 14.7471 33.0273 13.8926C32.5885 13.015 31.9766 12.3336 31.1914 11.8486C30.4061 11.3636 29.4934 11.1211 28.4541 11.1211ZM101 17.2002H99.0547V15.1211H101V17.2002ZM9.35449 10.7051C8.40758 10.7051 7.56426 10.9476 6.8252 11.4326C6.08611 11.8945 5.52057 12.5879 5.12793 13.5117C4.98791 13.853 4.88132 14.2225 4.80762 14.6201H13.6816C13.6448 14.1919 13.556 13.7872 13.4082 13.4072C13.108 12.5759 12.5996 11.9176 11.8838 11.4326C11.1909 10.9476 10.3476 10.7051 9.35449 10.7051Z" fill="#FF0031"/>
</svg>
