<svg width="21" height="17" viewBox="0 0 21 17" fill="none" xmlns="http://www.w3.org/2000/svg">
<path d="M10.8694 0.236433L19.7203 5.37936C20.0647 5.57957 20.0647 6.0761 19.7203 6.27631L10.8694 11.4192C10.3256 11.7352 9.65434 11.7352 9.11121 11.4192L0.26035 6.27631C-0.0840163 6.0761 -0.0840163 5.57957 0.26035 5.37936L9.11121 0.236433C9.65434 -0.078811 10.3256 -0.078811 10.8694 0.236433Z" fill="#FF0031"/>
<path d="M10.8694 0.236433L19.7203 5.37936C20.0647 5.57957 20.0647 6.0761 19.7203 6.27631L10.8694 11.4192C10.3256 11.7352 9.65434 11.7352 9.11121 11.4192L0.26035 6.27631C-0.0840163 6.0761 -0.0840163 5.57957 0.26035 5.37936L9.11121 0.236433C9.65434 -0.078811 10.3256 -0.078811 10.8694 0.236433Z" fill="#FF0031"/>
<path d="M19.7173 6.28039L16.7105 8.0277L10.8716 11.4204C10.3255 11.7335 9.65572 11.7335 9.10968 11.4204L3.27075 8.0277L0.256636 6.28039C-0.0855455 6.07654 -0.0855455 5.58147 0.256636 5.37761L9.10968 0.237603C9.65572 -0.0754574 10.3255 -0.0754574 10.8716 0.237603L19.7173 5.37761C20.0668 5.58147 20.0668 6.07654 19.7173 6.28039Z" fill="#FF0031"/>
<path d="M11.4205 12.3645C10.9815 12.6156 10.4893 12.7474 9.99062 12.7474C9.49191 12.7474 8.99975 12.6156 8.56656 12.3681L3.27075 9.29065V12.0245C3.27075 12.636 3.59109 13.1966 4.12257 13.5024L7.81376 15.6356C9.16065 16.4073 10.8206 16.4073 12.1602 15.6356L15.8587 13.5024C16.3829 13.1966 16.7105 12.636 16.7105 12.0245V9.29065L11.4205 12.3645Z" fill="#FF0031"/>
<path d="M19.8775 12.9906V7.4502L18.5663 8.21173V12.9899C18.2583 13.1996 18.0559 13.5527 18.0559 13.9531C18.0559 14.5967 18.5779 15.1187 19.2215 15.1187C19.8651 15.1187 20.3871 14.5974 20.3871 13.9538C20.3871 13.5534 20.1847 13.201 19.8775 12.9906Z" fill="#FF0031"/>
</svg>
