<svg width="20" height="20" viewBox="0 0 20 20" fill="none" xmlns="http://www.w3.org/2000/svg">
<path d="M9.70816 19.4163C15.0685 19.4163 19.4163 15.0685 19.4163 9.70816C19.4163 4.34786 15.0685 0 9.70816 0C4.34786 0 0 4.34786 0 9.70816C0 15.0685 4.34786 19.4163 9.70816 19.4163ZM9.0147 4.16065C9.0147 3.77924 9.32675 3.46719 9.70816 3.46719C10.0896 3.46719 10.4016 3.77924 10.4016 4.16065V9.37531L13.6088 11.941C13.907 12.1803 13.9555 12.6171 13.7162 12.9153C13.581 13.0852 13.3799 13.1753 13.1753 13.1753C13.0228 13.1753 12.8702 13.1268 12.742 13.0228L9.27478 10.2491C9.11182 10.1173 9.01475 9.91968 9.01475 9.70816V4.16065H9.0147Z" fill="#FF0031"/>
</svg>
