<svg width="124" height="31" viewBox="0 0 124 31" fill="none" xmlns="http://www.w3.org/2000/svg">
<rect width="124" height="31" rx="15.5" fill="white"/>
<path d="M30.0253 15.3868C30.0253 16.0379 29.8864 16.6795 29.6087 17.3114C29.3406 17.9338 29.0007 18.494 28.589 18.9919C28.1772 19.4898 27.732 19.892 27.2532 20.1984C26.7745 20.4952 26.3292 20.6436 25.9175 20.6436C25.6302 20.6436 25.3669 20.6005 25.1275 20.5144C24.8882 20.4282 24.6871 20.3037 24.5243 20.1409C24.3615 19.9781 24.2466 19.7819 24.1796 19.5521C24.1126 19.3222 24.1126 19.0685 24.1796 18.7908C24.0551 19.0494 23.8923 19.2935 23.6913 19.5233C23.4997 19.7436 23.2939 19.9398 23.0736 20.1122C22.8534 20.275 22.6284 20.4042 22.3986 20.5C22.1688 20.5958 21.9629 20.6436 21.781 20.6436C21.3788 20.6436 21.0629 20.5383 20.833 20.3276C20.6128 20.1074 20.5027 19.7866 20.5027 19.3653C20.5027 18.9823 20.5697 18.5897 20.7038 18.1876C20.8378 17.7854 20.9862 17.3976 21.149 17.0242C21.3214 16.6412 21.4746 16.2917 21.6086 15.9757C21.7427 15.6597 21.8097 15.3964 21.8097 15.1857C21.8097 15.023 21.781 14.9129 21.7235 14.8554C21.6757 14.7884 21.5895 14.7549 21.465 14.7549C21.3405 14.7549 21.1969 14.8267 21.0341 14.9703C20.8809 15.1139 20.7373 15.3342 20.6032 15.631L20.3734 15.5448C20.5745 15.1044 20.8283 14.7836 21.1347 14.5825C21.4411 14.3719 21.7571 14.2665 22.0826 14.2665C22.456 14.2665 22.7289 14.3671 22.9013 14.5681C23.0832 14.7692 23.1742 15.0278 23.1742 15.3437C23.1742 15.631 23.112 15.9422 22.9875 16.2773C22.8726 16.6029 22.7385 16.938 22.5853 17.2827C22.4417 17.6179 22.3076 17.9578 22.1832 18.3025C22.0683 18.6472 22.0108 18.9823 22.0108 19.3079C22.0108 19.7388 22.2023 19.9542 22.5853 19.9542C22.8534 19.9542 23.1407 19.7914 23.4471 19.4659C23.7631 19.1307 24.0886 18.6041 24.4238 17.886L25.4866 14.3958L27.0665 14.324L25.6446 19.0063C25.3861 19.8106 25.5824 20.2127 26.2335 20.2127C26.5112 20.2127 26.7936 20.1361 27.0809 19.9829C27.3777 19.8297 27.641 19.6239 27.8708 19.3653C28.1102 19.0972 28.3065 18.786 28.4597 18.4317C28.6129 18.0679 28.6895 17.6801 28.6895 17.2684C28.6895 17.0003 28.6799 16.7752 28.6608 16.5933C28.6416 16.4114 28.6177 16.2486 28.589 16.105C28.5698 15.9613 28.5507 15.8225 28.5315 15.6884C28.5124 15.5448 28.5028 15.3773 28.5028 15.1857C28.5028 14.9368 28.5555 14.7213 28.6608 14.5394C28.7661 14.3575 28.9289 14.2665 29.1491 14.2665C29.4555 14.2665 29.6758 14.3814 29.8098 14.6112C29.9535 14.8315 30.0253 15.09 30.0253 15.3868ZM36.9569 19.1643C36.708 19.6526 36.392 20.0212 36.009 20.2702C35.626 20.5096 35.2525 20.6293 34.8887 20.6293C34.5057 20.6293 34.204 20.5239 33.9838 20.3133C33.7731 20.1026 33.6678 19.8489 33.6678 19.5521C33.6678 19.2552 33.7301 18.944 33.8545 18.6185C33.979 18.2929 34.1131 17.9626 34.2567 17.6274C34.4003 17.2923 34.5344 16.9572 34.6589 16.622C34.7833 16.2869 34.8456 15.9613 34.8456 15.6454C34.8456 15.4634 34.8025 15.315 34.7163 15.2001C34.6301 15.0852 34.5009 15.0278 34.3285 15.0278C34.1657 15.0278 34.0077 15.0708 33.8545 15.157C33.7013 15.2336 33.5386 15.3629 33.3662 15.5448C33.2034 15.7172 33.0215 15.9518 32.8204 16.2486C32.6289 16.5359 32.4135 16.8901 32.1741 17.3114L31.183 20.5H29.6175L32.8491 10.2306C32.8491 10.2018 32.8204 10.1875 32.763 10.1875L31.973 10.2018C31.9539 10.2018 31.9539 10.1635 31.973 10.0869C32.0017 10.0103 32.0257 9.97203 32.0448 9.97203L34.4721 9.91458C34.4913 9.91458 34.5009 9.92416 34.5009 9.94331L32.447 16.4353C32.9162 15.6214 33.3854 15.0565 33.8545 14.7405C34.3237 14.4149 34.7546 14.2522 35.1472 14.2522C35.5206 14.2522 35.8127 14.3671 36.0233 14.5969C36.234 14.8171 36.3393 15.1379 36.3393 15.5592C36.3393 15.9135 36.2723 16.2821 36.1382 16.6651C36.0042 17.0481 35.8558 17.4216 35.693 17.7854C35.5398 18.1397 35.3961 18.4701 35.2621 18.7765C35.128 19.0829 35.061 19.3414 35.061 19.5521C35.061 19.7148 35.0945 19.8489 35.1616 19.9542C35.2286 20.0595 35.3435 20.1122 35.5063 20.1122C35.7265 20.1122 35.9324 20.0308 36.1239 19.868C36.3249 19.7053 36.5356 19.4419 36.7558 19.0781L36.9569 19.1643ZM43.6994 14.2378L41.9758 19.667C41.9471 19.7723 41.9519 19.8728 41.9902 19.9686C42.0381 20.0548 42.129 20.0978 42.2631 20.0978C42.4929 20.0978 42.7131 20.0069 42.9238 19.8249C43.144 19.6334 43.3451 19.3845 43.527 19.0781L43.7425 19.1643C43.6276 19.3845 43.4887 19.5856 43.3259 19.7675C43.1727 19.9494 43.0052 20.1074 42.8232 20.2415C42.6509 20.3659 42.469 20.4617 42.2774 20.5287C42.0955 20.5958 41.9184 20.6293 41.746 20.6293C41.3247 20.6293 41.0087 20.4856 40.7981 20.1984C40.5874 19.9015 40.5491 19.5329 40.6832 19.0924C40.1853 20.117 39.5341 20.6293 38.7298 20.6293C38.3851 20.6293 38.0931 20.5622 37.8537 20.4282C37.6143 20.2941 37.418 20.1218 37.2648 19.9111C37.1212 19.6909 37.0159 19.4467 36.9488 19.1786C36.8818 18.9009 36.8483 18.6185 36.8483 18.3312C36.8483 17.8716 36.9488 17.4024 37.1499 16.9237C37.3606 16.4449 37.643 16.0092 37.9973 15.6166C38.3612 15.224 38.7825 14.9033 39.2613 14.6543C39.7496 14.3958 40.2714 14.2665 40.8268 14.2665C41.0758 14.2665 41.3008 14.3288 41.5019 14.4532C41.7029 14.5777 41.8274 14.7644 41.8753 15.0134L42.1482 14.3958L43.6994 14.2378ZM41.746 15.4156C41.746 15.1379 41.6598 14.9129 41.4875 14.7405C41.3247 14.5586 41.1045 14.4676 40.8268 14.4676C40.7119 14.4676 40.597 14.4915 40.4821 14.5394C40.3672 14.5777 40.2236 14.6591 40.0512 14.7836C39.7927 14.9847 39.5533 15.2815 39.3331 15.6741C39.1224 16.0571 38.9405 16.4736 38.7873 16.9237C38.6341 17.3641 38.5144 17.8046 38.4282 18.245C38.3516 18.6855 38.3133 19.0541 38.3133 19.351C38.3133 19.7244 38.3708 19.9829 38.4857 20.1266C38.6101 20.2606 38.7777 20.3276 38.9884 20.3276C39.3522 20.3276 39.6921 20.1218 40.0081 19.71C40.3241 19.2983 40.6401 18.6999 40.9561 17.9147L41.746 15.4156ZM48.0269 14.2952C48.0364 14.2952 48.0316 14.3383 48.0125 14.4245C47.9933 14.5011 47.9742 14.5394 47.955 14.5394H46.8778L45.2692 19.6526C45.2309 19.7866 45.2357 19.8968 45.2835 19.9829C45.3314 20.0691 45.4224 20.1122 45.5564 20.1122C45.7767 20.1122 45.9873 20.0356 46.1884 19.8824C46.3895 19.7292 46.5954 19.4611 46.806 19.0781L47.0215 19.1643C46.7725 19.6717 46.4613 20.0452 46.0879 20.2846C45.724 20.5144 45.3601 20.6293 44.9963 20.6293C44.5367 20.6293 44.2063 20.4617 44.0053 20.1266C43.8137 19.7819 43.809 19.3127 43.9909 18.719L45.3266 14.5394H44.2781C44.259 14.5394 44.259 14.5011 44.2781 14.4245C44.3069 14.3383 44.3308 14.2952 44.35 14.2952H45.3985L46.0304 12.227L47.6247 12.1695L46.9496 14.2952H48.0269ZM50.405 20.5V10.0543H52.5778V13.9816H52.6441C52.7393 13.7708 52.877 13.5566 53.0572 13.339C53.2409 13.118 53.4789 12.9343 53.7713 12.7881C54.0671 12.6385 54.4344 12.5637 54.873 12.5637C55.4443 12.5637 55.9713 12.7133 56.4541 13.0125C56.937 13.3084 57.3229 13.7555 57.6119 14.354C57.901 14.949 58.0455 15.6954 58.0455 16.5931C58.0455 17.4669 57.9044 18.2048 57.6221 18.8067C57.3433 19.4051 56.9625 19.859 56.4796 20.1685C56.0002 20.4745 55.463 20.6275 54.8679 20.6275C54.4463 20.6275 54.0875 20.5578 53.7917 20.4184C53.4993 20.279 53.2596 20.1039 53.0725 19.893C52.8855 19.6788 52.7427 19.4629 52.6441 19.2453H52.5472V20.5H50.405ZM52.5319 16.5829C52.5319 17.0487 52.5965 17.455 52.7257 17.8019C52.8549 18.1487 53.0419 18.419 53.2868 18.6128C53.5316 18.8033 53.8291 18.8985 54.1793 18.8985C54.533 18.8985 54.8322 18.8016 55.077 18.6077C55.3218 18.4105 55.5072 18.1385 55.633 17.7917C55.7622 17.4414 55.8268 17.0385 55.8268 16.5829C55.8268 16.1306 55.7639 15.7328 55.6381 15.3894C55.5123 15.0459 55.3269 14.7773 55.0821 14.5835C54.8373 14.3897 54.5364 14.2928 54.1793 14.2928C53.8257 14.2928 53.5265 14.3863 53.2817 14.5733C53.0402 14.7603 52.8549 15.0255 52.7257 15.369C52.5965 15.7124 52.5319 16.117 52.5319 16.5829ZM63.8011 17.1643V12.6657H65.9739V20.5H63.8878V19.077H63.8062C63.6294 19.536 63.3352 19.9049 62.9238 20.1838C62.5158 20.4626 62.0176 20.602 61.4294 20.602C60.9057 20.602 60.445 20.483 60.0471 20.245C59.6493 20.007 59.3382 19.6686 59.1138 19.23C58.8927 18.7914 58.7805 18.266 58.7771 17.654V12.6657H60.9499V17.2663C60.9533 17.7288 61.0774 18.0943 61.3223 18.3629C61.5671 18.6315 61.8952 18.7658 62.3066 18.7658C62.5685 18.7658 62.8133 18.7063 63.0411 18.5873C63.2689 18.4649 63.4525 18.2847 63.592 18.0467C63.7348 17.8087 63.8045 17.5145 63.8011 17.1643ZM69.8805 20.6275C69.2855 20.6275 68.7465 20.4745 68.2637 20.1685C67.7843 19.859 67.4034 19.4051 67.1212 18.8067C66.8424 18.2048 66.703 17.4669 66.703 16.5931C66.703 15.6954 66.8475 14.949 67.1365 14.354C67.4255 13.7555 67.8098 13.3084 68.2892 13.0125C68.7721 12.7133 69.3008 12.5637 69.8754 12.5637C70.3141 12.5637 70.6796 12.6385 70.972 12.7881C71.2679 12.9343 71.5059 13.118 71.6861 13.339C71.8697 13.5566 72.0091 13.7708 72.1043 13.9816H72.1706V10.0543H74.3383V20.5H72.1961V19.2453H72.1043C72.0023 19.4629 71.8578 19.6788 71.6708 19.893C71.4872 20.1039 71.2475 20.279 70.9516 20.4184C70.6592 20.5578 70.3022 20.6275 69.8805 20.6275ZM70.5691 18.8985C70.9193 18.8985 71.2152 18.8033 71.4566 18.6128C71.7014 18.419 71.8884 18.1487 72.0176 17.8019C72.1502 17.455 72.2166 17.0487 72.2166 16.5829C72.2166 16.117 72.1519 15.7124 72.0227 15.369C71.8935 15.0255 71.7065 14.7603 71.4617 14.5733C71.2169 14.3863 70.9193 14.2928 70.5691 14.2928C70.2121 14.2928 69.9112 14.3897 69.6663 14.5835C69.4215 14.7773 69.2362 15.0459 69.1104 15.3894C68.9846 15.7328 68.9217 16.1306 68.9217 16.5829C68.9217 17.0385 68.9846 17.4414 69.1104 17.7917C69.2396 18.1385 69.4249 18.4105 69.6663 18.6077C69.9112 18.8016 70.2121 18.8985 70.5691 18.8985ZM78.9361 23.6011C78.2323 23.6011 77.6287 23.5042 77.1255 23.3103C76.6256 23.1199 76.2278 22.8598 75.932 22.53C75.6361 22.2001 75.444 21.8295 75.3556 21.4181L77.3652 21.1478C77.4264 21.3042 77.5233 21.4504 77.6559 21.5864C77.7885 21.7224 77.9636 21.8312 78.1813 21.9128C78.4023 21.9978 78.6709 22.0403 78.9871 22.0403C79.4598 22.0403 79.8491 21.9247 80.1551 21.6935C80.4646 21.4657 80.6193 21.0832 80.6193 20.5459V19.1127H80.5275C80.4323 19.3303 80.2894 19.536 80.099 19.7298C79.9086 19.9236 79.6638 20.0818 79.3646 20.2042C79.0653 20.3266 78.7083 20.3878 78.2935 20.3878C77.7052 20.3878 77.1697 20.2518 76.6868 19.9798C76.2074 19.7043 75.8249 19.2844 75.5392 18.7199C75.257 18.1521 75.1159 17.4346 75.1159 16.5676C75.1159 15.6801 75.2604 14.9388 75.5494 14.3438C75.8385 13.7487 76.2227 13.3033 76.7021 13.0074C77.185 12.7116 77.7137 12.5637 78.2884 12.5637C78.727 12.5637 79.0942 12.6385 79.3901 12.7881C79.6859 12.9343 79.9239 13.118 80.1041 13.339C80.2877 13.5566 80.4289 13.7708 80.5275 13.9816H80.6091V12.6657H82.7666V20.5765C82.7666 21.243 82.6033 21.8006 82.2769 22.2495C81.9505 22.6983 81.4983 23.0349 80.9202 23.2593C80.3456 23.4872 79.6842 23.6011 78.9361 23.6011ZM78.982 18.7556C79.3323 18.7556 79.6281 18.6689 79.8695 18.4955C80.1143 18.3187 80.3013 18.0671 80.4306 17.7407C80.5632 17.4108 80.6295 17.0164 80.6295 16.5574C80.6295 16.0983 80.5649 15.7005 80.4357 15.3639C80.3064 15.0238 80.1194 14.7603 79.8746 14.5733C79.6298 14.3863 79.3323 14.2928 78.982 14.2928C78.625 14.2928 78.3241 14.3897 78.0793 14.5835C77.8344 14.7739 77.6491 15.0391 77.5233 15.3792C77.3975 15.7192 77.3346 16.1119 77.3346 16.5574C77.3346 17.0096 77.3975 17.4006 77.5233 17.7305C77.6525 18.0569 77.8378 18.3102 78.0793 18.4904C78.3241 18.6672 78.625 18.7556 78.982 18.7556ZM87.3478 20.653C86.5419 20.653 85.8482 20.4898 85.2668 20.1634C84.6887 19.8335 84.2433 19.3677 83.9305 18.7658C83.6177 18.1606 83.4612 17.4448 83.4612 16.6186C83.4612 15.8127 83.6177 15.1054 83.9305 14.4968C84.2433 13.8881 84.6836 13.4138 85.2515 13.0738C85.8227 12.7337 86.4926 12.5637 87.2611 12.5637C87.7779 12.5637 88.2591 12.647 88.7045 12.8136C89.1533 12.9768 89.5444 13.2234 89.8776 13.5532C90.2142 13.883 90.4761 14.2979 90.6631 14.7977C90.8501 15.2941 90.9436 15.8756 90.9436 16.5421V17.1388H84.3283V15.7923H88.8983C88.8983 15.4795 88.8303 15.2023 88.6943 14.9609C88.5583 14.7195 88.3696 14.5308 88.1281 14.3948C87.8901 14.2554 87.613 14.1857 87.2968 14.1857C86.9669 14.1857 86.6745 14.2622 86.4195 14.4152C86.1679 14.5648 85.9707 14.7671 85.8278 15.0221C85.685 15.2737 85.6119 15.5543 85.6085 15.8637V17.1439C85.6085 17.5315 85.6799 17.8665 85.8227 18.1487C85.969 18.4309 86.1747 18.6485 86.4399 18.8016C86.7051 18.9546 87.0196 19.0311 87.3835 19.0311C87.6249 19.0311 87.8459 18.9971 88.0465 18.9291C88.2472 18.8611 88.4189 18.759 88.5617 18.623C88.7045 18.487 88.8133 18.3204 88.8881 18.1232L90.8977 18.2558C90.7957 18.7386 90.5866 19.1603 90.2703 19.5207C89.9575 19.8777 89.5529 20.1566 89.0564 20.3572C88.5634 20.5544 87.9938 20.653 87.3478 20.653ZM95.8104 12.6657V14.2979H91.0925V12.6657H95.8104ZM92.1636 10.7888H94.3364V18.0926C94.3364 18.2932 94.367 18.4496 94.4282 18.5618C94.4894 18.6706 94.5744 18.7471 94.6832 18.7914C94.7954 18.8356 94.9247 18.8577 95.0709 18.8577C95.1729 18.8577 95.2749 18.8492 95.3769 18.8322C95.4789 18.8118 95.5571 18.7965 95.6115 18.7863L95.9532 20.4031C95.8444 20.4371 95.6914 20.4762 95.4942 20.5204C95.297 20.568 95.0573 20.5969 94.775 20.6071C94.2514 20.6275 93.7924 20.5578 93.3979 20.398C93.0069 20.2382 92.7026 19.99 92.4849 19.6533C92.2673 19.3167 92.1602 18.8917 92.1636 18.3782V10.7888ZM98.3744 17.3683V17.1949C98.3778 16.5999 98.4305 16.1255 98.5325 15.7719C98.6379 15.4183 98.791 15.1326 98.9916 14.915C99.1922 14.6974 99.4336 14.5002 99.7158 14.3234C99.9267 14.1874 100.115 14.0462 100.282 13.9C100.449 13.7538 100.581 13.5923 100.68 13.4155C100.778 13.2353 100.828 13.0347 100.828 12.8136C100.828 12.579 100.772 12.3733 100.659 12.1965C100.547 12.0197 100.396 11.8837 100.205 11.7884C100.018 11.6932 99.811 11.6456 99.5832 11.6456C99.3622 11.6456 99.1531 11.6949 98.9559 11.7935C98.7587 11.8888 98.5971 12.0316 98.4713 12.222C98.3455 12.409 98.2775 12.6419 98.2673 12.9207H96.1863C96.2033 12.2407 96.3665 11.6796 96.676 11.2376C96.9854 10.7922 97.3951 10.4606 97.9052 10.243C98.4152 10.022 98.978 9.91148 99.5934 9.91148C100.27 9.91148 100.869 10.0237 101.389 10.2481C101.909 10.4691 102.317 10.7905 102.613 11.2121C102.909 11.6337 103.057 12.1421 103.057 12.7371C103.057 13.135 102.99 13.4886 102.858 13.798C102.729 14.104 102.547 14.3761 102.312 14.6141C102.077 14.8487 101.8 15.0612 101.481 15.2516C101.212 15.4115 100.991 15.5781 100.818 15.7515C100.648 15.9249 100.52 16.1255 100.435 16.3533C100.353 16.5812 100.311 16.8617 100.307 17.1949V17.3683H98.3744ZM99.3843 20.6326C99.0443 20.6326 98.7536 20.5136 98.5121 20.2756C98.2741 20.0342 98.1568 19.7451 98.1602 19.4085C98.1568 19.0753 98.2741 18.7897 98.5121 18.5516C98.7536 18.3136 99.0443 18.1946 99.3843 18.1946C99.7073 18.1946 99.9913 18.3136 100.236 18.5516C100.481 18.7897 100.605 19.0753 100.608 19.4085C100.605 19.6329 100.546 19.8386 100.43 20.0257C100.318 20.2093 100.17 20.3572 99.9862 20.4694C99.8025 20.5782 99.6019 20.6326 99.3843 20.6326Z" fill="#FF0031"/>
</svg>
