<svg width="124" height="31" viewBox="0 0 124 31" fill="none" xmlns="http://www.w3.org/2000/svg">
<rect width="124" height="31" rx="15.5" fill="white"/>
<path d="M31.0253 15.3868C31.0253 16.0379 30.8864 16.6795 30.6087 17.3114C30.3406 17.9338 30.0007 18.494 29.589 18.9919C29.1772 19.4898 28.732 19.892 28.2532 20.1984C27.7745 20.4952 27.3292 20.6436 26.9175 20.6436C26.6302 20.6436 26.3669 20.6005 26.1275 20.5144C25.8882 20.4282 25.6871 20.3037 25.5243 20.1409C25.3615 19.9781 25.2466 19.7819 25.1796 19.5521C25.1126 19.3222 25.1126 19.0685 25.1796 18.7908C25.0551 19.0494 24.8923 19.2935 24.6913 19.5233C24.4997 19.7436 24.2939 19.9398 24.0736 20.1122C23.8534 20.275 23.6284 20.4042 23.3986 20.5C23.1688 20.5958 22.9629 20.6436 22.781 20.6436C22.3788 20.6436 22.0629 20.5383 21.833 20.3276C21.6128 20.1074 21.5027 19.7866 21.5027 19.3653C21.5027 18.9823 21.5697 18.5897 21.7038 18.1876C21.8378 17.7854 21.9862 17.3976 22.149 17.0242C22.3214 16.6412 22.4746 16.2917 22.6086 15.9757C22.7427 15.6597 22.8097 15.3964 22.8097 15.1857C22.8097 15.023 22.781 14.9129 22.7235 14.8554C22.6757 14.7884 22.5895 14.7549 22.465 14.7549C22.3405 14.7549 22.1969 14.8267 22.0341 14.9703C21.8809 15.1139 21.7373 15.3342 21.6032 15.631L21.3734 15.5448C21.5745 15.1044 21.8283 14.7836 22.1347 14.5825C22.4411 14.3719 22.7571 14.2665 23.0826 14.2665C23.456 14.2665 23.7289 14.3671 23.9013 14.5681C24.0832 14.7692 24.1742 15.0278 24.1742 15.3437C24.1742 15.631 24.112 15.9422 23.9875 16.2773C23.8726 16.6029 23.7385 16.938 23.5853 17.2827C23.4417 17.6179 23.3076 17.9578 23.1832 18.3025C23.0683 18.6472 23.0108 18.9823 23.0108 19.3079C23.0108 19.7388 23.2023 19.9542 23.5853 19.9542C23.8534 19.9542 24.1407 19.7914 24.4471 19.4659C24.7631 19.1307 25.0886 18.6041 25.4238 17.886L26.4866 14.3958L28.0665 14.324L26.6446 19.0063C26.3861 19.8106 26.5824 20.2127 27.2335 20.2127C27.5112 20.2127 27.7936 20.1361 28.0809 19.9829C28.3777 19.8297 28.641 19.6239 28.8708 19.3653C29.1102 19.0972 29.3065 18.786 29.4597 18.4317C29.6129 18.0679 29.6895 17.6801 29.6895 17.2684C29.6895 17.0003 29.6799 16.7752 29.6608 16.5933C29.6416 16.4114 29.6177 16.2486 29.589 16.105C29.5698 15.9613 29.5507 15.8225 29.5315 15.6884C29.5124 15.5448 29.5028 15.3773 29.5028 15.1857C29.5028 14.9368 29.5555 14.7213 29.6608 14.5394C29.7661 14.3575 29.9289 14.2665 30.1491 14.2665C30.4555 14.2665 30.6758 14.3814 30.8098 14.6112C30.9535 14.8315 31.0253 15.09 31.0253 15.3868ZM37.9569 19.1643C37.708 19.6526 37.392 20.0212 37.009 20.2702C36.626 20.5096 36.2525 20.6293 35.8887 20.6293C35.5057 20.6293 35.204 20.5239 34.9838 20.3133C34.7731 20.1026 34.6678 19.8489 34.6678 19.5521C34.6678 19.2552 34.7301 18.944 34.8545 18.6185C34.979 18.2929 35.1131 17.9626 35.2567 17.6274C35.4003 17.2923 35.5344 16.9572 35.6589 16.622C35.7833 16.2869 35.8456 15.9613 35.8456 15.6454C35.8456 15.4634 35.8025 15.315 35.7163 15.2001C35.6301 15.0852 35.5009 15.0278 35.3285 15.0278C35.1657 15.0278 35.0077 15.0708 34.8545 15.157C34.7013 15.2336 34.5386 15.3629 34.3662 15.5448C34.2034 15.7172 34.0215 15.9518 33.8204 16.2486C33.6289 16.5359 33.4135 16.8901 33.1741 17.3114L32.183 20.5H30.6175L33.8491 10.2306C33.8491 10.2018 33.8204 10.1875 33.763 10.1875L32.973 10.2018C32.9539 10.2018 32.9539 10.1635 32.973 10.0869C33.0017 10.0103 33.0257 9.97203 33.0448 9.97203L35.4721 9.91458C35.4913 9.91458 35.5009 9.92416 35.5009 9.94331L33.447 16.4353C33.9162 15.6214 34.3854 15.0565 34.8545 14.7405C35.3237 14.4149 35.7546 14.2522 36.1472 14.2522C36.5206 14.2522 36.8127 14.3671 37.0233 14.5969C37.234 14.8171 37.3393 15.1379 37.3393 15.5592C37.3393 15.9135 37.2723 16.2821 37.1382 16.6651C37.0042 17.0481 36.8558 17.4216 36.693 17.7854C36.5398 18.1397 36.3961 18.4701 36.2621 18.7765C36.128 19.0829 36.061 19.3414 36.061 19.5521C36.061 19.7148 36.0945 19.8489 36.1616 19.9542C36.2286 20.0595 36.3435 20.1122 36.5063 20.1122C36.7265 20.1122 36.9324 20.0308 37.1239 19.868C37.3249 19.7053 37.5356 19.4419 37.7558 19.0781L37.9569 19.1643ZM43.3205 15.5735C43.3205 15.8608 43.2344 16.1193 43.062 16.3491C42.8897 16.5789 42.6503 16.7752 42.3439 16.938C42.047 17.1008 41.6927 17.2253 41.281 17.3114C40.8789 17.3976 40.4432 17.4407 39.974 17.4407H39.5862C39.4809 17.7758 39.3947 18.111 39.3277 18.4461C39.2606 18.7812 39.2271 19.0637 39.2271 19.2935C39.2271 19.6478 39.2894 19.9255 39.4138 20.1266C39.5383 20.3181 39.7681 20.4138 40.1033 20.4138C40.3618 20.4138 40.5916 20.3851 40.7927 20.3276C41.0033 20.2702 41.1948 20.1888 41.3672 20.0835C41.5395 19.9781 41.7023 19.8537 41.8555 19.71C42.0087 19.5664 42.1619 19.4132 42.3151 19.2504L42.4444 19.4084C42.1093 19.8106 41.755 20.117 41.3816 20.3276C41.0081 20.5287 40.5772 20.6293 40.0889 20.6293C39.7633 20.6293 39.4617 20.5718 39.184 20.4569C38.9159 20.342 38.6813 20.1792 38.4803 19.9686C38.2792 19.7579 38.1212 19.5042 38.0063 19.2073C37.901 18.9105 37.8483 18.585 37.8483 18.2307C37.8483 17.7136 37.9488 17.2157 38.1499 16.7369C38.351 16.2582 38.6191 15.8369 38.9542 15.473C39.2894 15.0996 39.6724 14.8027 40.1033 14.5825C40.5437 14.3623 41.0033 14.2522 41.4821 14.2522C41.7789 14.2522 42.0422 14.2905 42.272 14.3671C42.5019 14.4437 42.6934 14.5442 42.8466 14.6687C43.0093 14.7836 43.129 14.9224 43.2056 15.0852C43.2822 15.2384 43.3205 15.4012 43.3205 15.5735ZM42.0135 15.2576C42.0135 14.9703 41.9656 14.774 41.8699 14.6687C41.7741 14.5538 41.6305 14.4963 41.439 14.4963C41.1805 14.4963 40.9602 14.5681 40.7783 14.7118C40.606 14.8554 40.448 15.0517 40.3043 15.3006C40.1703 15.54 40.0506 15.8273 39.9453 16.1624C39.8399 16.488 39.7346 16.8375 39.6293 17.2109H39.9022C40.3426 17.2109 40.7017 17.1535 40.9794 17.0386C41.2571 16.9237 41.4725 16.7752 41.6257 16.5933C41.7789 16.4018 41.8795 16.1911 41.9273 15.9613C41.9848 15.7315 42.0135 15.4969 42.0135 15.2576ZM50.5422 19.1643C50.2933 19.6622 49.9725 20.0308 49.5799 20.2702C49.1969 20.5096 48.8283 20.6293 48.474 20.6293C48.0814 20.6293 47.7798 20.5239 47.5691 20.3133C47.3585 20.1026 47.2532 19.8489 47.2532 19.5521C47.2532 19.2648 47.3106 18.9584 47.4255 18.6328C47.55 18.3073 47.684 17.9769 47.8277 17.6418C47.9809 17.3067 48.1149 16.9715 48.2298 16.6364C48.3543 16.2917 48.4165 15.9613 48.4165 15.6454C48.4165 15.4634 48.3735 15.315 48.2873 15.2001C48.2107 15.0852 48.0862 15.0278 47.9138 15.0278C47.7511 15.0278 47.5883 15.0708 47.4255 15.157C47.2723 15.2336 47.1095 15.3629 46.9372 15.5448C46.7744 15.7267 46.5972 15.9661 46.4057 16.263C46.2142 16.5502 45.9988 16.9045 45.7594 17.3258L44.7684 20.5H43.2028L44.7971 15.4443C44.8641 15.2336 44.8641 15.0661 44.7971 14.9416C44.7397 14.8171 44.6391 14.7549 44.4955 14.7549C44.3519 14.7549 44.2034 14.8219 44.0502 14.9559C43.9066 15.0804 43.7582 15.3054 43.605 15.631L43.3895 15.5448C43.5811 15.1331 43.8348 14.8171 44.1508 14.5969C44.4668 14.3671 44.7971 14.2522 45.1418 14.2522C45.3525 14.2522 45.5392 14.3 45.702 14.3958C45.8743 14.482 46.0036 14.616 46.0898 14.7979C46.1759 14.9703 46.219 15.1953 46.219 15.473C46.219 15.7411 46.1568 16.0619 46.0323 16.4353C46.4919 15.6214 46.9563 15.0565 47.4255 14.7405C47.9043 14.4149 48.3399 14.2522 48.7325 14.2522C49.0964 14.2522 49.3836 14.3671 49.5943 14.5969C49.8145 14.8171 49.9246 15.1379 49.9246 15.5592C49.9246 15.9135 49.8576 16.2821 49.7236 16.6651C49.5895 17.0481 49.4411 17.4216 49.2783 17.7854C49.1155 18.1397 48.9671 18.4701 48.8331 18.7765C48.699 19.0829 48.632 19.3414 48.632 19.5521C48.632 19.7148 48.6655 19.8489 48.7325 19.9542C48.7996 20.0595 48.9145 20.1122 49.0772 20.1122C49.2975 20.1122 49.5033 20.0356 49.6948 19.8824C49.8959 19.7196 50.1066 19.4515 50.3268 19.0781L50.5422 19.1643ZM56.8619 14.2952C56.8715 14.2952 56.8667 14.3383 56.8475 14.4245C56.8284 14.5011 56.8092 14.5394 56.7901 14.5394H55.7129L54.1042 19.6526C54.0659 19.7866 54.0707 19.8968 54.1186 19.9829C54.1665 20.0691 54.2574 20.1122 54.3915 20.1122C54.6117 20.1122 54.8224 20.0356 55.0235 19.8824C55.2245 19.7292 55.4304 19.4611 55.6411 19.0781L55.8565 19.1643C55.6075 19.6717 55.2963 20.0452 54.9229 20.2846C54.5591 20.5144 54.1952 20.6293 53.8313 20.6293C53.3717 20.6293 53.0414 20.4617 52.8403 20.1266C52.6488 19.7819 52.644 19.3127 52.8259 18.719L54.1617 14.5394H53.1132C53.094 14.5394 53.094 14.5011 53.1132 14.4245C53.1419 14.3383 53.1659 14.2952 53.185 14.2952H54.2335L54.8655 12.227L56.4597 12.1695L55.7847 14.2952H56.8619ZM61.9883 16.6795C61.9883 17.187 61.8878 17.6801 61.6867 18.1589C61.4856 18.628 61.2127 19.0494 60.868 19.4228C60.5329 19.7866 60.1451 20.0787 59.7046 20.2989C59.2642 20.5192 58.8045 20.6293 58.3258 20.6293C58.0002 20.6293 57.6986 20.5718 57.4209 20.4569C57.1528 20.342 56.9182 20.1792 56.7171 19.9686C56.5161 19.7579 56.3581 19.5042 56.2432 19.2073C56.1378 18.9105 56.0852 18.585 56.0852 18.2307C56.0852 17.7136 56.1857 17.2157 56.3868 16.7369C56.5879 16.2582 56.856 15.8369 57.1911 15.473C57.5263 15.0996 57.9141 14.8027 58.3545 14.5825C58.795 14.3623 59.2546 14.2522 59.7333 14.2522C60.0589 14.2522 60.3557 14.3144 60.6238 14.4389C60.9015 14.5538 61.1409 14.7213 61.342 14.9416C61.5431 15.1522 61.7011 15.406 61.816 15.7028C61.9309 15.9996 61.9883 16.3252 61.9883 16.6795ZM60.5951 15.6166C60.5951 15.2623 60.5329 14.9895 60.4084 14.7979C60.2935 14.5969 60.0733 14.4963 59.7477 14.4963C59.47 14.4963 59.2306 14.5681 59.0296 14.7118C58.8285 14.8554 58.637 15.0804 58.4551 15.3868C58.3785 15.5209 58.2827 15.765 58.1678 16.1193C58.0529 16.4736 57.9428 16.8566 57.8375 17.2684C57.7417 17.6705 57.6555 18.0631 57.5789 18.4461C57.5119 18.8195 57.4784 19.102 57.4784 19.2935C57.4784 19.6478 57.5358 19.9255 57.6507 20.1266C57.7656 20.3181 57.9907 20.4138 58.3258 20.4138C58.5843 20.4138 58.8141 20.342 59.0152 20.1984C59.2259 20.0548 59.4222 19.8297 59.6041 19.5233C59.6807 19.3797 59.7764 19.1307 59.8913 18.7765C60.0062 18.4222 60.1164 18.044 60.2217 17.6418C60.327 17.2301 60.4132 16.8375 60.4802 16.464C60.5568 16.0906 60.5951 15.8081 60.5951 15.6166ZM71.9144 14.8997L69.9252 15.0221C69.8912 14.8521 69.8181 14.6991 69.7059 14.5631C69.5937 14.4237 69.4458 14.3132 69.2622 14.2316C69.082 14.1465 68.866 14.104 68.6144 14.104C68.2778 14.104 67.9939 14.1755 67.7626 14.3183C67.5314 14.4577 67.4158 14.6447 67.4158 14.8793C67.4158 15.0663 67.4906 15.2244 67.6402 15.3537C67.7898 15.4829 68.0466 15.5866 68.4104 15.6648L69.8283 15.9504C70.59 16.1068 71.1578 16.3584 71.5319 16.7053C71.9059 17.0521 72.0929 17.5077 72.0929 18.0722C72.0929 18.5856 71.9416 19.0362 71.639 19.4238C71.3398 19.8114 70.9283 20.1141 70.4047 20.3317C69.8844 20.5459 69.2843 20.653 68.6042 20.653C67.5671 20.653 66.7409 20.4371 66.1254 20.0053C65.5134 19.57 65.1546 18.9784 65.0492 18.2303L67.1863 18.1181C67.2509 18.4343 67.4073 18.6757 67.6555 18.8424C67.9038 19.0056 68.2217 19.0872 68.6093 19.0872C68.9902 19.0872 69.2962 19.0141 69.5274 18.8679C69.762 18.7182 69.881 18.5261 69.8844 18.2915C69.881 18.0943 69.7977 17.9328 69.6345 17.807C69.4713 17.6778 69.2197 17.5791 68.8796 17.5111L67.5229 17.2408C66.7579 17.0878 66.1883 16.8226 65.8143 16.4451C65.4436 16.0677 65.2583 15.5866 65.2583 15.0017C65.2583 14.4985 65.3943 14.0649 65.6664 13.7011C65.9418 13.3373 66.3277 13.0568 66.8242 12.8595C67.324 12.6623 67.9089 12.5637 68.5787 12.5637C69.5682 12.5637 70.3469 12.7728 70.9147 13.1911C71.486 13.6093 71.8192 14.1789 71.9144 14.8997ZM76.91 12.6657V14.2979H72.1921V12.6657H76.91ZM73.2632 10.7888H75.436V18.0926C75.436 18.2932 75.4666 18.4496 75.5278 18.5618C75.589 18.6706 75.674 18.7471 75.7828 18.7914C75.895 18.8356 76.0243 18.8577 76.1705 18.8577C76.2725 18.8577 76.3745 18.8492 76.4765 18.8322C76.5785 18.8118 76.6567 18.7965 76.7111 18.7863L77.0528 20.4031C76.944 20.4371 76.791 20.4762 76.5938 20.5204C76.3966 20.568 76.1569 20.5969 75.8746 20.6071C75.351 20.6275 74.892 20.5578 74.4975 20.398C74.1065 20.2382 73.8022 19.99 73.5845 19.6533C73.3669 19.3167 73.2598 18.8917 73.2632 18.3782V10.7888ZM79.8413 20.6479C79.3414 20.6479 78.896 20.5612 78.5049 20.3878C78.1139 20.211 77.8045 19.9509 77.5767 19.6074C77.3522 19.2606 77.24 18.8288 77.24 18.3119C77.24 17.8767 77.3199 17.5111 77.4798 17.2153C77.6396 16.9195 77.8572 16.6815 78.1326 16.5013C78.408 16.321 78.7209 16.185 79.0711 16.0932C79.4247 16.0014 79.7954 15.9368 80.183 15.8994C80.6386 15.8518 81.0059 15.8076 81.2847 15.7668C81.5635 15.7226 81.7658 15.658 81.8916 15.573C82.0175 15.488 82.0804 15.3622 82.0804 15.1955V15.1649C82.0804 14.8419 81.9783 14.592 81.7743 14.4152C81.5737 14.2384 81.2881 14.1499 80.9175 14.1499C80.5264 14.1499 80.2153 14.2367 79.9841 14.4101C79.7529 14.5801 79.5998 14.7943 79.525 15.0527L77.5155 14.8895C77.6175 14.4135 77.8181 14.002 78.1173 13.6552C78.4165 13.305 78.8025 13.0364 79.2751 12.8493C79.7512 12.6589 80.302 12.5637 80.9277 12.5637C81.3629 12.5637 81.7794 12.6147 82.1773 12.7167C82.5785 12.8187 82.9338 12.9768 83.2433 13.1911C83.5561 13.4053 83.8026 13.6807 83.9828 14.0173C84.163 14.3506 84.2531 14.7501 84.2531 15.2159V20.5H82.1926V19.4136H82.1314C82.0055 19.6584 81.8372 19.8743 81.6264 20.0614C81.4156 20.245 81.1623 20.3895 80.8665 20.4949C80.5706 20.5969 80.2289 20.6479 79.8413 20.6479ZM80.4635 19.1484C80.7831 19.1484 81.0654 19.0855 81.3102 18.9597C81.555 18.8305 81.7471 18.657 81.8865 18.4394C82.026 18.2218 82.0957 17.9753 82.0957 17.6999V16.8685C82.0277 16.9127 81.9341 16.9535 81.8151 16.9909C81.6995 17.0249 81.5686 17.0572 81.4224 17.0878C81.2762 17.115 81.13 17.1405 80.9838 17.1643C80.8375 17.1847 80.7049 17.2034 80.5859 17.2204C80.3309 17.2578 80.1082 17.3173 79.9178 17.3989C79.7274 17.4805 79.5794 17.591 79.474 17.7305C79.3686 17.8665 79.3159 18.0365 79.3159 18.2405C79.3159 18.5363 79.423 18.7624 79.6372 18.9189C79.8549 19.0719 80.1303 19.1484 80.4635 19.1484ZM85.2207 20.5V12.6657H87.3272V14.0326H87.4088C87.5516 13.5464 87.7913 13.1792 88.128 12.9309C88.4646 12.6793 88.8522 12.5535 89.2909 12.5535C89.3997 12.5535 89.517 12.5603 89.6428 12.5739C89.7686 12.5875 89.8791 12.6062 89.9743 12.63V14.558C89.8723 14.5274 89.7312 14.5002 89.551 14.4764C89.3708 14.4526 89.2058 14.4407 89.0562 14.4407C88.7366 14.4407 88.451 14.5104 88.1994 14.6498C87.9511 14.7858 87.7539 14.9762 87.6077 15.221C87.4649 15.4659 87.3935 15.7481 87.3935 16.0677V20.5H85.2207ZM94.9393 12.6657V14.2979H90.2214V12.6657H94.9393ZM91.2925 10.7888H93.4653V18.0926C93.4653 18.2932 93.4959 18.4496 93.5571 18.5618C93.6183 18.6706 93.7033 18.7471 93.8121 18.7914C93.9243 18.8356 94.0536 18.8577 94.1998 18.8577C94.3018 18.8577 94.4038 18.8492 94.5058 18.8322C94.6078 18.8118 94.686 18.7965 94.7404 18.7863L95.0821 20.4031C94.9733 20.4371 94.8203 20.4762 94.6231 20.5204C94.4259 20.568 94.1862 20.5969 93.9039 20.6071C93.3803 20.6275 92.9213 20.5578 92.5268 20.398C92.1358 20.2382 91.8315 19.99 91.6138 19.6533C91.3962 19.3167 91.2891 18.8917 91.2925 18.3782V10.7888ZM97.5033 17.3683V17.1949C97.5067 16.5999 97.5594 16.1255 97.6614 15.7719C97.7669 15.4183 97.9199 15.1326 98.1205 14.915C98.3211 14.6974 98.5625 14.5002 98.8447 14.3234C99.0556 14.1874 99.2443 14.0462 99.4109 13.9C99.5775 13.7538 99.7101 13.5923 99.8087 13.4155C99.9073 13.2353 99.9566 13.0347 99.9566 12.8136C99.9566 12.579 99.9005 12.3733 99.7883 12.1965C99.6761 12.0197 99.5248 11.8837 99.3344 11.7884C99.1474 11.6932 98.94 11.6456 98.7121 11.6456C98.4911 11.6456 98.282 11.6949 98.0848 11.7935C97.8876 11.8888 97.726 12.0316 97.6002 12.222C97.4744 12.409 97.4064 12.6419 97.3962 12.9207H95.3152C95.3322 12.2407 95.4955 11.6796 95.8049 11.2376C96.1143 10.7922 96.524 10.4606 97.0341 10.243C97.5441 10.022 98.1069 9.91148 98.7223 9.91148C99.399 9.91148 99.9974 10.0237 100.518 10.2481C101.038 10.4691 101.446 10.7905 101.742 11.2121C102.038 11.6337 102.186 12.1421 102.186 12.7371C102.186 13.135 102.119 13.4886 101.987 13.798C101.857 14.104 101.675 14.3761 101.441 14.6141C101.206 14.8487 100.929 15.0612 100.61 15.2516C100.341 15.4115 100.12 15.5781 99.9464 15.7515C99.7764 15.9249 99.6489 16.1255 99.5639 16.3533C99.4823 16.5812 99.4398 16.8617 99.4364 17.1949V17.3683H97.5033ZM98.5132 20.6326C98.1732 20.6326 97.8825 20.5136 97.641 20.2756C97.403 20.0342 97.2857 19.7451 97.2891 19.4085C97.2857 19.0753 97.403 18.7897 97.641 18.5516C97.8825 18.3136 98.1732 18.1946 98.5132 18.1946C98.8362 18.1946 99.1202 18.3136 99.365 18.5516C99.6098 18.7897 99.7339 19.0753 99.7373 19.4085C99.7339 19.6329 99.6744 19.8386 99.5588 20.0257C99.4466 20.2093 99.2987 20.3572 99.1151 20.4694C98.9315 20.5782 98.7308 20.6326 98.5132 20.6326Z" fill="#FF0031"/>
</svg>
