<svg width="124" height="31" viewBox="0 0 124 31" fill="none" xmlns="http://www.w3.org/2000/svg">
<rect width="124" height="31" rx="15.5" fill="white"/>
<path d="M28.0253 15.3868C28.0253 16.0379 27.8864 16.6795 27.6087 17.3114C27.3406 17.9338 27.0007 18.494 26.589 18.9919C26.1772 19.4898 25.732 19.892 25.2532 20.1984C24.7745 20.4952 24.3292 20.6436 23.9175 20.6436C23.6302 20.6436 23.3669 20.6005 23.1275 20.5144C22.8882 20.4282 22.6871 20.3037 22.5243 20.1409C22.3615 19.9781 22.2466 19.7819 22.1796 19.5521C22.1126 19.3222 22.1126 19.0685 22.1796 18.7908C22.0551 19.0494 21.8923 19.2935 21.6913 19.5233C21.4997 19.7436 21.2939 19.9398 21.0736 20.1122C20.8534 20.275 20.6284 20.4042 20.3986 20.5C20.1688 20.5958 19.9629 20.6436 19.781 20.6436C19.3788 20.6436 19.0629 20.5383 18.833 20.3276C18.6128 20.1074 18.5027 19.7866 18.5027 19.3653C18.5027 18.9823 18.5697 18.5897 18.7038 18.1876C18.8378 17.7854 18.9862 17.3976 19.149 17.0242C19.3214 16.6412 19.4746 16.2917 19.6086 15.9757C19.7427 15.6597 19.8097 15.3964 19.8097 15.1857C19.8097 15.023 19.781 14.9129 19.7235 14.8554C19.6757 14.7884 19.5895 14.7549 19.465 14.7549C19.3405 14.7549 19.1969 14.8267 19.0341 14.9703C18.8809 15.1139 18.7373 15.3342 18.6032 15.631L18.3734 15.5448C18.5745 15.1044 18.8283 14.7836 19.1347 14.5825C19.4411 14.3719 19.7571 14.2665 20.0826 14.2665C20.456 14.2665 20.7289 14.3671 20.9013 14.5681C21.0832 14.7692 21.1742 15.0278 21.1742 15.3437C21.1742 15.631 21.112 15.9422 20.9875 16.2773C20.8726 16.6029 20.7385 16.938 20.5853 17.2827C20.4417 17.6179 20.3076 17.9578 20.1832 18.3025C20.0683 18.6472 20.0108 18.9823 20.0108 19.3079C20.0108 19.7388 20.2023 19.9542 20.5853 19.9542C20.8534 19.9542 21.1407 19.7914 21.4471 19.4659C21.7631 19.1307 22.0886 18.6041 22.4238 17.886L23.4866 14.3958L25.0665 14.324L23.6446 19.0063C23.3861 19.8106 23.5824 20.2127 24.2335 20.2127C24.5112 20.2127 24.7936 20.1361 25.0809 19.9829C25.3777 19.8297 25.641 19.6239 25.8708 19.3653C26.1102 19.0972 26.3065 18.786 26.4597 18.4317C26.6129 18.0679 26.6895 17.6801 26.6895 17.2684C26.6895 17.0003 26.6799 16.7752 26.6608 16.5933C26.6416 16.4114 26.6177 16.2486 26.589 16.105C26.5698 15.9613 26.5507 15.8225 26.5315 15.6884C26.5124 15.5448 26.5028 15.3773 26.5028 15.1857C26.5028 14.9368 26.5555 14.7213 26.6608 14.5394C26.7661 14.3575 26.9289 14.2665 27.1491 14.2665C27.4555 14.2665 27.6758 14.3814 27.8098 14.6112C27.9535 14.8315 28.0253 15.09 28.0253 15.3868ZM34.9569 19.1643C34.708 19.6526 34.392 20.0212 34.009 20.2702C33.626 20.5096 33.2525 20.6293 32.8887 20.6293C32.5057 20.6293 32.204 20.5239 31.9838 20.3133C31.7731 20.1026 31.6678 19.8489 31.6678 19.5521C31.6678 19.2552 31.7301 18.944 31.8545 18.6185C31.979 18.2929 32.1131 17.9626 32.2567 17.6274C32.4003 17.2923 32.5344 16.9572 32.6589 16.622C32.7833 16.2869 32.8456 15.9613 32.8456 15.6454C32.8456 15.4634 32.8025 15.315 32.7163 15.2001C32.6301 15.0852 32.5009 15.0278 32.3285 15.0278C32.1657 15.0278 32.0077 15.0708 31.8545 15.157C31.7013 15.2336 31.5386 15.3629 31.3662 15.5448C31.2034 15.7172 31.0215 15.9518 30.8204 16.2486C30.6289 16.5359 30.4135 16.8901 30.1741 17.3114L29.183 20.5H27.6175L30.8491 10.2306C30.8491 10.2018 30.8204 10.1875 30.763 10.1875L29.973 10.2018C29.9539 10.2018 29.9539 10.1635 29.973 10.0869C30.0017 10.0103 30.0257 9.97203 30.0448 9.97203L32.4721 9.91458C32.4913 9.91458 32.5009 9.92416 32.5009 9.94331L30.447 16.4353C30.9162 15.6214 31.3854 15.0565 31.8545 14.7405C32.3237 14.4149 32.7546 14.2522 33.1472 14.2522C33.5206 14.2522 33.8127 14.3671 34.0233 14.5969C34.234 14.8171 34.3393 15.1379 34.3393 15.5592C34.3393 15.9135 34.2723 16.2821 34.1382 16.6651C34.0042 17.0481 33.8558 17.4216 33.693 17.7854C33.5398 18.1397 33.3961 18.4701 33.2621 18.7765C33.128 19.0829 33.061 19.3414 33.061 19.5521C33.061 19.7148 33.0945 19.8489 33.1616 19.9542C33.2286 20.0595 33.3435 20.1122 33.5063 20.1122C33.7265 20.1122 33.9324 20.0308 34.1239 19.868C34.3249 19.7053 34.5356 19.4419 34.7558 19.0781L34.9569 19.1643ZM38.7263 11.595C38.7263 11.8153 38.6449 12.0068 38.4821 12.1695C38.3289 12.3323 38.1374 12.4137 37.9076 12.4137C37.6586 12.4137 37.4528 12.3323 37.29 12.1695C37.1272 12.0068 37.0458 11.8153 37.0458 11.595C37.0458 11.3461 37.1272 11.1402 37.29 10.9774C37.4528 10.8051 37.6586 10.7189 37.9076 10.7189C38.1374 10.7189 38.3289 10.8051 38.4821 10.9774C38.6449 11.1402 38.7263 11.3461 38.7263 11.595ZM38.3959 19.1643C38.281 19.3941 38.1422 19.5999 37.9794 19.7819C37.8262 19.9638 37.6586 20.117 37.4767 20.2415C37.2948 20.3659 37.1033 20.4617 36.9022 20.5287C36.7107 20.5958 36.5192 20.6293 36.3277 20.6293C35.9255 20.6293 35.6191 20.5239 35.4084 20.3133C35.1978 20.0931 35.0925 19.8202 35.0925 19.4946C35.0925 19.1786 35.1643 18.8339 35.3079 18.4605C35.4515 18.0775 35.6095 17.6992 35.7819 17.3258C35.9638 16.9428 36.1266 16.5694 36.2702 16.2055C36.4138 15.8416 36.4857 15.5161 36.4857 15.2288C36.4857 15.0469 36.4521 14.9224 36.3851 14.8554C36.3277 14.7884 36.2319 14.7549 36.0979 14.7549C35.9734 14.7549 35.825 14.8315 35.6526 14.9847C35.4803 15.1379 35.3271 15.3533 35.193 15.631L34.9776 15.5448C35.1691 15.1331 35.4276 14.8171 35.7532 14.5969C36.0787 14.3671 36.4282 14.2522 36.8016 14.2522C37.1751 14.2522 37.4528 14.3623 37.6347 14.5825C37.8262 14.8027 37.9219 15.0613 37.9219 15.3581C37.9219 15.7124 37.8453 16.0906 37.6921 16.4928C37.5485 16.8853 37.3905 17.2731 37.2182 17.6562C37.0458 18.0296 36.883 18.3839 36.7298 18.719C36.5862 19.0446 36.5144 19.3222 36.5144 19.5521C36.5144 19.7148 36.5431 19.8489 36.6006 19.9542C36.6676 20.0595 36.7825 20.1122 36.9453 20.1122C37.1655 20.1122 37.3762 20.0356 37.5772 19.8824C37.7783 19.7292 37.9842 19.4611 38.1948 19.0781L38.3959 19.1643ZM43.8253 15.8177C43.8253 16.0667 43.7487 16.2534 43.5955 16.3779C43.4519 16.4928 43.2699 16.5502 43.0497 16.5502C42.8199 16.5502 42.6523 16.4832 42.547 16.3491C42.4513 16.2055 42.4034 16.0523 42.4034 15.8895C42.4034 15.765 42.4129 15.6645 42.4321 15.5879C42.4608 15.5017 42.4896 15.4299 42.5183 15.3725C42.547 15.315 42.5709 15.2576 42.5901 15.2001C42.6188 15.1427 42.6332 15.0661 42.6332 14.9703C42.6332 14.8075 42.5662 14.6878 42.4321 14.6112C42.3076 14.5346 42.1305 14.4963 41.9007 14.4963C41.6421 14.4963 41.4267 14.5586 41.2543 14.683C41.082 14.8075 40.9144 15.0038 40.7516 15.2719C40.6655 15.4347 40.5601 15.698 40.4357 16.0619C40.3112 16.4162 40.1915 16.7992 40.0766 17.2109C39.9617 17.6226 39.8659 18.0248 39.7893 18.4174C39.7127 18.8004 39.6744 19.102 39.6744 19.3222C39.6744 19.6861 39.7367 19.959 39.8612 20.1409C39.9952 20.3229 40.2298 20.4138 40.5649 20.4138C41.0916 20.4138 41.5368 20.2846 41.9007 20.026C42.2741 19.7675 42.6045 19.4467 42.8917 19.0637L43.0784 19.193C42.7529 19.6239 42.3746 19.9734 41.9438 20.2415C41.5129 20.5 41.0485 20.6293 40.5506 20.6293C40.225 20.6293 39.9234 20.5718 39.6457 20.4569C39.3776 20.342 39.143 20.1792 38.9419 19.9686C38.7408 19.7579 38.5829 19.5042 38.468 19.2073C38.3626 18.9105 38.31 18.585 38.31 18.2307C38.31 17.7136 38.4057 17.2157 38.5972 16.7369C38.7887 16.2582 39.0473 15.8369 39.3728 15.473C39.6984 15.0996 40.0766 14.8027 40.5075 14.5825C40.9384 14.3623 41.398 14.2522 41.8863 14.2522C42.1353 14.2522 42.3746 14.3 42.6045 14.3958C42.8438 14.482 43.0497 14.6017 43.2221 14.7549C43.404 14.9081 43.5476 15.0804 43.6529 15.2719C43.7678 15.4539 43.8253 15.6358 43.8253 15.8177ZM50.5877 19.1643C50.3388 19.6526 50.0228 20.0212 49.6398 20.2702C49.2568 20.5096 48.8833 20.6293 48.5195 20.6293C48.1365 20.6293 47.8349 20.5239 47.6146 20.3133C47.404 20.1026 47.2986 19.8489 47.2986 19.5521C47.2986 19.2552 47.3609 18.944 47.4854 18.6185C47.6098 18.2929 47.7439 17.9626 47.8875 17.6274C48.0311 17.2923 48.1652 16.9572 48.2897 16.622C48.4142 16.2869 48.4764 15.9613 48.4764 15.6454C48.4764 15.4634 48.4333 15.315 48.3471 15.2001C48.2609 15.0852 48.1317 15.0278 47.9593 15.0278C47.7966 15.0278 47.6386 15.0708 47.4854 15.157C47.3322 15.2336 47.1694 15.3629 46.997 15.5448C46.8342 15.7172 46.6523 15.9518 46.4512 16.2486C46.2597 16.5359 46.0443 16.8901 45.8049 17.3114L44.8139 20.5H43.2483L46.48 10.2306C46.48 10.2018 46.4512 10.1875 46.3938 10.1875L45.6038 10.2018C45.5847 10.2018 45.5847 10.1635 45.6038 10.0869C45.6325 10.0103 45.6565 9.97203 45.6756 9.97203L48.103 9.91458C48.1221 9.91458 48.1317 9.92416 48.1317 9.94331L46.0778 16.4353C46.547 15.6214 47.0162 15.0565 47.4854 14.7405C47.9545 14.4149 48.3854 14.2522 48.778 14.2522C49.1514 14.2522 49.4435 14.3671 49.6541 14.5969C49.8648 14.8171 49.9701 15.1379 49.9701 15.5592C49.9701 15.9135 49.9031 16.2821 49.769 16.6651C49.635 17.0481 49.4866 17.4216 49.3238 17.7854C49.1706 18.1397 49.027 18.4701 48.8929 18.7765C48.7589 19.0829 48.6918 19.3414 48.6918 19.5521C48.6918 19.7148 48.7253 19.8489 48.7924 19.9542C48.8594 20.0595 48.9743 20.1122 49.1371 20.1122C49.3573 20.1122 49.5632 20.0308 49.7547 19.868C49.9558 19.7053 50.1664 19.4419 50.3867 19.0781L50.5877 19.1643ZM57.1329 20.653C56.3304 20.653 55.6402 20.483 55.0621 20.143C54.4875 19.7995 54.0454 19.3235 53.736 18.7148C53.43 18.1062 53.277 17.4057 53.277 16.6135C53.277 15.811 53.4317 15.1071 53.7411 14.5019C54.0539 13.8932 54.4977 13.4189 55.0723 13.0789C55.647 12.7354 56.3304 12.5637 57.1227 12.5637C57.8062 12.5637 58.4046 12.6878 58.9181 12.936C59.4315 13.1843 59.8378 13.5328 60.1371 13.9816C60.4363 14.4305 60.6012 14.9575 60.6318 15.5628H58.5814C58.5236 15.1717 58.3706 14.8572 58.1224 14.6192C57.8776 14.3778 57.5562 14.2571 57.1584 14.2571C56.8218 14.2571 56.5276 14.3489 56.276 14.5325C56.0278 14.7127 55.834 14.9762 55.6946 15.3231C55.5552 15.6699 55.4855 16.0898 55.4855 16.5829C55.4855 17.0827 55.5535 17.5077 55.6895 17.858C55.8289 18.2082 56.0244 18.4751 56.276 18.6587C56.5276 18.8424 56.8218 18.9342 57.1584 18.9342C57.4066 18.9342 57.6293 18.8832 57.8266 18.7812C58.0272 18.6791 58.1921 18.5312 58.3213 18.3374C58.4539 18.1402 58.5406 17.9039 58.5814 17.6285H60.6318C60.5978 18.2269 60.4346 18.7539 60.1422 19.2096C59.8531 19.6618 59.4536 20.0155 58.9436 20.2705C58.4335 20.5255 57.83 20.653 57.1329 20.653ZM64.8445 20.653C64.0522 20.653 63.3671 20.4847 62.789 20.1481C62.2144 19.808 61.7706 19.3354 61.4578 18.7301C61.145 18.1215 60.9886 17.4159 60.9886 16.6135C60.9886 15.8042 61.145 15.0969 61.4578 14.4917C61.7706 13.883 62.2144 13.4104 62.789 13.0738C63.3671 12.7337 64.0522 12.5637 64.8445 12.5637C65.6368 12.5637 66.3202 12.7337 66.8949 13.0738C67.4729 13.4104 67.9184 13.883 68.2312 14.4917C68.544 15.0969 68.7004 15.8042 68.7004 16.6135C68.7004 17.4159 68.544 18.1215 68.2312 18.7301C67.9184 19.3354 67.4729 19.808 66.8949 20.1481C66.3202 20.4847 65.6368 20.653 64.8445 20.653ZM64.8547 18.9699C65.2151 18.9699 65.5161 18.8679 65.7575 18.6638C65.9989 18.4564 66.1808 18.1742 66.3032 17.8172C66.429 17.4601 66.492 17.0538 66.492 16.5982C66.492 16.1425 66.429 15.7362 66.3032 15.3792C66.1808 15.0221 65.9989 14.7399 65.7575 14.5325C65.5161 14.3251 65.2151 14.2214 64.8547 14.2214C64.4909 14.2214 64.1849 14.3251 63.9366 14.5325C63.6918 14.7399 63.5065 15.0221 63.3807 15.3792C63.2583 15.7362 63.1971 16.1425 63.1971 16.5982C63.1971 17.0538 63.2583 17.4601 63.3807 17.8172C63.5065 18.1742 63.6918 18.4564 63.9366 18.6638C64.1849 18.8679 64.4909 18.9699 64.8547 18.9699ZM74.4191 17.1643V12.6657H76.5919V20.5H74.5058V19.077H74.4242C74.2473 19.536 73.9532 19.9049 73.5418 20.1838C73.1337 20.4626 72.6356 20.602 72.0474 20.602C71.5237 20.602 71.063 20.483 70.6651 20.245C70.2673 20.007 69.9562 19.6686 69.7318 19.23C69.5107 18.7914 69.3985 18.266 69.3951 17.654V12.6657H71.5679V17.2663C71.5713 17.7288 71.6954 18.0943 71.9402 18.3629C72.1851 18.6315 72.5132 18.7658 72.9246 18.7658C73.1865 18.7658 73.4313 18.7063 73.6591 18.5873C73.8869 18.4649 74.0705 18.2847 74.2099 18.0467C74.3528 17.8087 74.4225 17.5145 74.4191 17.1643ZM77.6117 20.5V12.6657H79.7182V14.0326H79.7998C79.9426 13.5464 80.1823 13.1792 80.5189 12.9309C80.8556 12.6793 81.2432 12.5535 81.6818 12.5535C81.7906 12.5535 81.908 12.5603 82.0338 12.5739C82.1596 12.5875 82.2701 12.6062 82.3653 12.63V14.558C82.2633 14.5274 82.1222 14.5002 81.942 14.4764C81.7617 14.4526 81.5968 14.4407 81.4472 14.4407C81.1276 14.4407 80.842 14.5104 80.5903 14.6498C80.3421 14.7858 80.1449 14.9762 79.9987 15.221C79.8559 15.4659 79.7845 15.7481 79.7845 16.0677V20.5H77.6117ZM89.2889 14.8997L87.2997 15.0221C87.2657 14.8521 87.1926 14.6991 87.0804 14.5631C86.9682 14.4237 86.8203 14.3132 86.6367 14.2316C86.4564 14.1465 86.2405 14.104 85.9889 14.104C85.6523 14.104 85.3684 14.1755 85.1371 14.3183C84.9059 14.4577 84.7903 14.6447 84.7903 14.8793C84.7903 15.0663 84.8651 15.2244 85.0147 15.3537C85.1643 15.4829 85.4211 15.5866 85.7849 15.6648L87.2028 15.9504C87.9645 16.1068 88.5323 16.3584 88.9064 16.7053C89.2804 17.0521 89.4674 17.5077 89.4674 18.0722C89.4674 18.5856 89.3161 19.0362 89.0135 19.4238C88.7142 19.8114 88.3028 20.1141 87.7792 20.3317C87.2589 20.5459 86.6588 20.653 85.9787 20.653C84.9416 20.653 84.1153 20.4371 83.4999 20.0053C82.8878 19.57 82.5291 18.9784 82.4237 18.2303L84.5608 18.1181C84.6254 18.4343 84.7818 18.6757 85.03 18.8424C85.2782 19.0056 85.5962 19.0872 85.9838 19.0872C86.3646 19.0872 86.6707 19.0141 86.9019 18.8679C87.1365 18.7182 87.2555 18.5261 87.2589 18.2915C87.2555 18.0943 87.1722 17.9328 87.009 17.807C86.8458 17.6778 86.5942 17.5791 86.2541 17.5111L84.8974 17.2408C84.1323 17.0878 83.5628 16.8226 83.1888 16.4451C82.8181 16.0677 82.6328 15.5866 82.6328 15.0017C82.6328 14.4985 82.7688 14.0649 83.0408 13.7011C83.3163 13.3373 83.7022 13.0568 84.1986 12.8595C84.6985 12.6623 85.2833 12.5637 85.9532 12.5637C86.9427 12.5637 87.7214 12.7728 88.2892 13.1911C88.8605 13.6093 89.1937 14.1789 89.2889 14.8997ZM93.6878 20.653C92.8819 20.653 92.1882 20.4898 91.6068 20.1634C91.0287 19.8335 90.5833 19.3677 90.2705 18.7658C89.9576 18.1606 89.8012 17.4448 89.8012 16.6186C89.8012 15.8127 89.9576 15.1054 90.2705 14.4968C90.5833 13.8881 91.0236 13.4138 91.5915 13.0738C92.1627 12.7337 92.8326 12.5637 93.6011 12.5637C94.1179 12.5637 94.599 12.647 95.0445 12.8136C95.4933 12.9768 95.8844 13.2234 96.2176 13.5532C96.5542 13.883 96.816 14.2979 97.0031 14.7977C97.1901 15.2941 97.2836 15.8756 97.2836 16.5421V17.1388H90.6683V15.7923H95.2383C95.2383 15.4795 95.1703 15.2023 95.0343 14.9609C94.8983 14.7195 94.7096 14.5308 94.4681 14.3948C94.2301 14.2554 93.953 14.1857 93.6368 14.1857C93.3069 14.1857 93.0145 14.2622 92.7595 14.4152C92.5079 14.5648 92.3106 14.7671 92.1678 15.0221C92.025 15.2737 91.9519 15.5543 91.9485 15.8637V17.1439C91.9485 17.5315 92.0199 17.8665 92.1627 18.1487C92.3089 18.4309 92.5147 18.6485 92.7799 18.8016C93.0451 18.9546 93.3596 19.0311 93.7235 19.0311C93.9649 19.0311 94.1859 18.9971 94.3865 18.9291C94.5871 18.8611 94.7589 18.759 94.9017 18.623C95.0445 18.487 95.1533 18.3204 95.2281 18.1232L97.2377 18.2558C97.1357 18.7386 96.9265 19.1603 96.6103 19.5207C96.2975 19.8777 95.8929 20.1566 95.3964 20.3572C94.9034 20.5544 94.3338 20.653 93.6878 20.653ZM99.8501 17.3683V17.1949C99.8535 16.5999 99.9062 16.1255 100.008 15.7719C100.114 15.4183 100.267 15.1326 100.467 14.915C100.668 14.6974 100.909 14.5002 101.192 14.3234C101.402 14.1874 101.591 14.0462 101.758 13.9C101.924 13.7538 102.057 13.5923 102.156 13.4155C102.254 13.2353 102.303 13.0347 102.303 12.8136C102.303 12.579 102.247 12.3733 102.135 12.1965C102.023 12.0197 101.872 11.8837 101.681 11.7884C101.494 11.6932 101.287 11.6456 101.059 11.6456C100.838 11.6456 100.629 11.6949 100.432 11.7935C100.234 11.8888 100.073 12.0316 99.947 12.222C99.8212 12.409 99.7532 12.6419 99.743 12.9207H97.662C97.679 12.2407 97.8423 11.6796 98.1517 11.2376C98.4611 10.7922 98.8708 10.4606 99.3809 10.243C99.8909 10.022 100.454 9.91148 101.069 9.91148C101.746 9.91148 102.344 10.0237 102.864 10.2481C103.385 10.4691 103.793 10.7905 104.089 11.2121C104.384 11.6337 104.532 12.1421 104.532 12.7371C104.532 13.135 104.466 13.4886 104.333 13.798C104.204 14.104 104.022 14.3761 103.788 14.6141C103.553 14.8487 103.276 15.0612 102.956 15.2516C102.688 15.4115 102.467 15.5781 102.293 15.7515C102.123 15.9249 101.996 16.1255 101.911 16.3533C101.829 16.5812 101.787 16.8617 101.783 17.1949V17.3683H99.8501ZM100.86 20.6326C100.52 20.6326 100.229 20.5136 99.9878 20.2756C99.7498 20.0342 99.6325 19.7451 99.6359 19.4085C99.6325 19.0753 99.7498 18.7897 99.9878 18.5516C100.229 18.3136 100.52 18.1946 100.86 18.1946C101.183 18.1946 101.467 18.3136 101.712 18.5516C101.957 18.7897 102.081 19.0753 102.084 19.4085C102.081 19.6329 102.021 19.8386 101.906 20.0257C101.793 20.2093 101.645 20.3572 101.462 20.4694C101.278 20.5782 101.078 20.6326 100.86 20.6326Z" fill="#FF0031"/>
</svg>
